<svg width="99" height="105" viewBox="0 0 99 105" fill="none" xmlns="http://www.w3.org/2000/svg">
<path d="M76.818 0L7.91199 3.814L0 41.464L17.278 104.131L90.048 84.913L98.652 46.168L76.818 0Z" fill="#FF707C"/>
<path d="M73.857 12.3162C71.738 16.0252 69.838 17.0852 68.162 15.4952C66.483 13.9052 61.406 12.4052 52.928 10.9912H43.921C23.609 11.3452 13.101 23.0902 12.395 46.2262C12.423 46.9522 12.463 47.6662 12.514 48.3692C12.463 49.1762 12.421 49.9942 12.395 50.8312C13.278 73.7922 25.728 84.9832 49.748 84.4102C55.577 84.0572 60.565 82.9202 64.716 81.0002C68.866 79.0792 72.532 76.7942 75.711 74.1452L75.777 60.1042C75.77 60.1042 75.763 60.1062 75.756 60.1062L75.777 55.5002C73.613 55.5002 71.913 56.7812 70.677 59.3412C69.441 61.9032 67.012 65.0372 63.392 68.7462C59.77 72.4552 55.134 74.4862 49.483 74.8392C43.301 74.4862 37.87 72.0582 33.19 67.5542C28.547 63.0862 26.126 56.0482 25.915 46.4522C26.259 37.1182 28.77 30.4522 33.454 26.4592C38.84 21.8682 44.625 19.6602 50.807 19.8362C56.988 19.8362 62.375 23.7222 66.967 31.4932C68.91 37.1462 71.272 40.0372 74.053 40.1702C76.217 39.9942 77.299 38.5372 77.299 35.7992V31.1942V21.4932V16.8852C77.302 14.0162 76.153 12.4922 73.857 12.3162Z" fill="#002C47"/>
<path d="M49.749 79.8052C25.729 80.3792 13.278 69.1872 12.395 46.2262C13.101 23.0902 23.609 11.3452 43.921 10.9912H52.928C61.406 12.4052 66.483 13.9062 68.162 15.4952C69.838 17.0852 71.738 16.0242 73.857 12.3162C76.152 12.4932 77.302 14.0162 77.302 16.8862V31.1922C77.302 33.9302 76.22 35.3872 74.056 35.5632C71.275 35.4302 68.913 32.5392 66.97 26.8862C62.377 19.1152 56.991 15.2292 50.81 15.2292C44.628 15.0542 38.843 17.2612 33.457 21.8522C28.07 26.4452 25.554 34.5682 25.907 46.2252C26.083 55.9392 28.512 63.0482 33.193 67.5512C37.873 72.0552 43.304 74.4832 49.486 74.8362C55.136 74.4832 59.773 72.4522 63.395 68.7432C67.014 65.0342 69.443 61.9002 70.68 59.3382C71.916 56.7782 73.616 55.4972 75.78 55.4972L75.714 69.5382C72.535 72.1872 68.87 74.4722 64.719 76.3932C60.566 78.3152 55.578 79.4522 49.749 79.8052Z" fill="#00578F"/>
<path d="M48.013 78.128C26.035 78.128 14.94 67.69 14.094 46.219C14.787 23.993 24.554 13.026 43.951 12.688H52.787C63.294 14.449 66.199 15.973 66.996 16.728C68.025 17.703 69.051 17.907 69.732 17.907C71.875 17.907 73.513 16.044 74.673 14.246C75.171 14.54 75.606 15.225 75.606 16.886V31.192C75.606 33.586 74.707 33.799 74.04 33.861C72.098 33.687 70.209 31.089 68.575 26.335L68.519 26.172L68.431 26.023C63.534 17.735 57.605 13.532 50.81 13.532C50.614 13.526 50.372 13.523 50.13 13.523C43.815 13.523 37.834 15.891 32.356 20.561C26.583 25.483 23.842 34.135 24.211 46.277C24.393 56.391 27.02 63.967 32.016 68.775C36.974 73.547 42.819 76.157 49.389 76.532L49.491 76.538L49.593 76.532C55.649 76.154 60.701 73.933 64.609 69.931C68.394 66.052 70.879 62.829 72.207 60.078C72.818 58.813 73.463 58.096 74.072 57.694L74.019 68.733C71.106 71.069 67.741 73.127 64.005 74.856C60.066 76.679 55.235 77.775 49.647 78.113C49.137 78.122 48.571 78.128 48.013 78.128Z" fill="#FFC807"/>
<path d="M72.9679 60.1979C73.3269 59.4539 73.6989 58.9209 74.0669 58.5129L74.0709 57.6919C73.4619 58.0949 72.8169 58.8119 72.2059 60.0759C70.8779 62.8279 68.3929 66.0509 64.6079 69.9289C61.2629 73.3549 57.0719 75.4639 52.1379 76.2409C57.4649 75.6289 61.9589 73.5099 65.4919 69.8919C69.2159 66.0769 71.6609 62.9059 72.9679 60.1979Z" fill="#C09530"/>
<path d="M68.5181 26.1708L68.5741 26.3338C69.8991 30.1898 71.393 32.5998 72.946 33.4758C71.689 32.3358 70.484 30.1668 69.394 26.9988L69.3391 26.8388L69.252 26.6928C67.134 23.1068 64.818 20.3008 62.321 18.2788C64.503 20.2518 66.544 22.8308 68.429 26.0228L68.5181 26.1708Z" fill="#C09530"/>
<path d="M50.772 77.942C50.271 77.953 49.713 77.959 49.164 77.959C27.539 77.959 16.623 67.689 15.791 46.563C16.473 24.694 26.082 13.904 45.167 13.572H49.074C49.426 13.557 49.775 13.522 50.129 13.522C50.371 13.522 50.613 13.525 50.809 13.531C51.157 13.531 51.501 13.549 51.844 13.571H53.861C64.199 15.304 67.057 16.803 67.841 17.545C68.853 18.504 69.863 18.705 70.533 18.705C72.622 18.705 74.221 16.907 75.36 15.154C75.187 14.68 74.94 14.402 74.672 14.244C73.512 16.042 71.875 17.905 69.731 17.905C69.05 17.905 68.024 17.701 66.995 16.726C66.198 15.972 63.294 14.448 52.786 12.686H43.95C24.553 13.024 14.786 23.991 14.093 46.217C14.938 67.688 26.033 78.126 48.012 78.126C48.57 78.126 49.137 78.119 49.646 78.108C51.378 78.003 53.029 77.817 54.612 77.567C53.376 77.736 52.097 77.862 50.772 77.942Z" fill="#C09530"/>
</svg>
