<svg width="62" height="90" viewBox="0 0 62 90" fill="none" xmlns="http://www.w3.org/2000/svg">
<path d="M54.7707 0.11169L54.7792 0.222955L54.8273 0.851075L55.0102 3.2384C55.168 5.29689 55.3941 8.2416 55.6673 11.7865C56.2136 18.8762 56.9478 28.3667 57.6998 37.9694C58.4519 47.5721 59.2216 57.2872 59.8388 64.8262C60.4557 72.3616 60.9207 77.7302 61.0633 78.6333C61.0749 78.7068 61.0497 78.794 60.961 78.8996C60.8719 79.0057 60.7266 79.1202 60.5219 79.2415C60.1132 79.4838 59.4914 79.7394 58.6817 80.005C57.0639 80.5357 54.7183 81.099 51.8828 81.6749C46.2132 82.8265 38.5989 84.0256 30.965 85.1127C23.3315 86.1998 15.68 87.1746 9.93689 87.8776C7.06534 88.2292 4.67092 88.5127 2.9944 88.7084C2.15615 88.8063 1.49737 88.8822 1.04817 88.9336C0.823574 88.9593 0.651371 88.9789 0.535324 88.992L0.475906 88.9988L4.2582 7.20438L37.174 2.21697L37.1771 2.21655L54.7707 0.11169Z" fill="#919AFF" stroke="black" stroke-width="0.2"/>
<path d="M20.4243 61.8971V73.8297H12.1002V20.1H26.9435C33.3898 20.1 38.8884 22.1357 43.4443 26.2059C47.9998 30.2758 50.2738 35.1826 50.2738 40.932C50.2738 46.7032 47.9998 51.621 43.4447 55.6908C41.8521 57.0919 40.0885 58.2851 38.1521 59.2699L38.0373 59.3283L38.1224 59.425L50.7793 73.8291H40.1981L29.527 61.8306L29.4971 61.7971H29.4522H20.5243H20.4243V61.8971Z" fill="#70C25B" stroke="black" stroke-width="0.2"/>
<path d="M37.9002 41.4996C37.9002 47.2229 31.9722 51.9 24.6054 51.9H20.1002V31.1H24.6054C31.9722 31.1 37.9002 35.7772 37.9002 41.4996Z" fill="#919AFF" stroke="black" stroke-width="0.2"/>
</svg>
