<svg width="52" height="61" viewBox="0 0 52 61" fill="none" xmlns="http://www.w3.org/2000/svg">
<path d="M32.9772 0.1L46.4064 6.56596L51.704 56.1544L29.9985 60.8979L4.94709 56.1483L0.601261 21.5038L4.93877 0.1H32.9772Z" fill="#6ED34A" stroke="black" stroke-width="0.2"/>
<path d="M19.896 47.202C19.896 50.801 20.681 51.389 25.13 51.389H32.261C37.363 51.389 40.242 47.922 41.158 42.754C41.158 42.492 41.878 42.558 41.878 42.819C41.616 45.24 41.289 48.969 41.289 51.782C41.289 52.502 41.093 52.764 40.307 52.764H10.083C9.88704 52.764 9.88704 51.979 10.083 51.979C14.859 51.979 15.644 51.26 15.644 47.465V17.175C15.644 13.446 14.859 12.661 10.083 12.661C9.88704 12.661 9.88704 11.876 10.083 11.876C12.176 11.876 14.859 12.072 17.737 12.072C20.746 12.072 23.428 11.876 25.456 11.876C25.718 11.876 25.718 12.661 25.456 12.661C20.746 12.661 19.896 13.511 19.896 17.24V47.202Z" fill="#3A8855"/>
</svg>
