<svg width="65" height="65" viewBox="0 0 65 65" fill="none" xmlns="http://www.w3.org/2000/svg">
<path d="M0.746973 41.1621V13.819L15.9015 0.786316L64.666 3.69329V58.1931L9.45738 64.6277L0.746973 41.1621Z" fill="#FFE248" stroke="black" stroke-width="0.2"/>
<path d="M31.2009 44.6591H31.201C35.153 44.6586 38.2877 42.9659 40.4235 40.2919C42.5509 37.6284 43.6729 34.0126 43.6729 30.1591C43.6729 27.4041 42.8039 25.045 41.1579 23.3727C39.5104 21.699 37.1326 20.7621 34.2099 20.7621C30.2579 20.7621 27.1232 22.4549 24.9874 25.129C22.8599 27.7926 21.7379 31.4086 21.7379 35.2621C21.7379 38.0172 22.607 40.3762 24.253 42.0485C25.9004 43.7222 28.2783 44.6591 31.2009 44.6591ZM7.16895 36.1771C7.16895 28.2272 10.1271 21.5085 15.1326 16.7753C20.1402 12.0401 27.2251 9.26611 35.5189 9.26611C42.5518 9.26611 48.2305 11.3462 52.1446 14.8627C56.0544 18.3753 58.2429 23.3553 58.2429 29.2431C58.2429 37.193 55.2845 43.9117 50.2789 48.6449C45.2712 53.3802 38.1863 56.1541 29.8929 56.1541C22.86 56.1541 17.1813 54.0742 13.2672 50.5579C9.35743 47.0454 7.16895 42.0654 7.16895 36.1771Z" fill="#4881EF" stroke="black"/>
</svg>
