<svg width="54" height="74" viewBox="0 0 54 74" fill="none" xmlns="http://www.w3.org/2000/svg">
<path d="M3.48901 0L53.886 4.65201L46.908 73.187L0 69.78L3.48901 0Z" fill="#FFBA54"/>
<path d="M11.9022 58.0298C11.4322 57.7168 11.4321 57.2468 11.4321 56.5418L12.2161 46.3608C12.2161 45.8908 13.0761 45.8908 13.0761 46.3608C12.7641 52.6258 15.5041 59.5958 23.5701 59.5958C28.1901 59.5958 33.3601 57.2468 34.6121 50.1988C36.0221 42.6808 31.0881 39.3128 26.0761 35.9448C21.2221 32.6558 16.5221 29.4448 17.7751 22.0838C19.2631 13.9388 26.5461 9.94482 33.2821 9.94482C35.7881 9.94482 38.5282 10.4928 41.5042 11.8248C42.1302 12.1378 42.5222 12.6078 42.4442 13.1558L41.5042 21.4568C41.5042 21.8488 40.5641 21.8488 40.5641 21.4568C40.5641 16.9148 39.3121 10.9628 32.1841 10.9628C25.7631 10.9628 22.7091 15.8188 21.9251 20.2818C20.6711 26.9388 25.4491 30.0718 30.3051 33.2818C35.3951 36.5718 40.4862 39.9388 39.2332 47.4568C37.9792 54.6618 31.7931 60.6918 21.6901 60.6918C18.4021 60.6928 15.4262 60.0658 11.9022 58.0298Z" fill="#3B95FF"/>
<mask id="mask0_2389_1214" style="mask-type:luminance" maskUnits="userSpaceOnUse" x="0" y="0" width="54" height="74">
<path d="M3.48901 0L53.886 4.65201L46.908 73.187L0 69.78L3.48901 0Z" fill="white"/>
</mask>
<g mask="url(#mask0_2389_1214)">
<g opacity="0.35">
<path opacity="0.1091" d="M-11.368 58.9798C-9.10099 66.8848 -5.66699 74.0548 -1.06599 80.4898C3.57501 87.3808 8.204 94.2808 12.82 101.191C17.925 108.818 25.694 90.1467 26.565 88.1077C30.028 79.5127 33.042 70.9018 35.61 62.2738C37.782 57.3868 38.317 52.8768 37.215 48.7428C31.753 35.9948 26.054 23.5648 22.62 9.71775C21.877 7.36275 20.079 6.87776 17.228 8.26176C12.76 11.5318 9.39799 15.5868 7.14299 20.4258C2.06199 28.6088 -2.61301 36.9008 -6.88301 45.3028C-9.96101 49.9208 -11.455 54.4798 -11.368 58.9798Z" fill="black"/>
<path opacity="0.1091" d="M-7.56195 26.6559C-5.34895 34.3549 -2.00192 41.3389 2.48108 47.6079C6.94908 54.4599 11.3991 61.3259 15.8301 68.2049C17.2501 70.2639 19.2751 70.2109 21.9061 68.0439C25.7751 63.5119 28.2211 58.6169 29.2461 53.3589C32.3881 43.9749 35.0741 34.6029 37.3031 25.2429C39.3001 19.9589 39.6421 15.1189 38.3321 10.7249C33.0911 -2.57807 27.8591 -15.6511 24.6841 -30.0311C23.7671 -32.4451 21.8701 -32.7381 18.9951 -30.9081C14.4951 -26.7901 11.2551 -22.0531 9.27606 -16.6991C4.50606 -7.35307 0.164057 2.05892 -3.74994 11.5369C-6.64694 16.7489 -7.91695 21.7889 -7.56195 26.6559Z" fill="black"/>
<path opacity="0.1091" d="M17.0979 14.7391C20.2819 23.1731 23.3669 32.2801 28.8949 39.2341C33.6709 45.2421 38.6219 51.1201 43.5049 57.0391C45.5629 59.5331 50.0369 61.5011 53.9499 58.0981C55.8379 56.4561 57.0069 54.0181 57.8879 51.9601C59.0879 49.1571 59.2569 47.9141 57.6359 46.0481C52.0269 40.5061 47.3329 34.2401 43.5539 27.2491C38.4229 21.0301 35.0549 13.7091 33.4519 5.28809C32.5709 2.55209 28.0639 0.562089 24.4849 2.46509C21.5549 4.02109 16.1209 12.1501 17.0979 14.7391Z" fill="black"/>
<path opacity="0.1091" d="M15.2151 32.0128C17.7951 38.5538 20.2901 44.7418 23.8921 50.6248C28.6361 58.3738 33.7661 65.8399 38.7201 73.4359C39.2761 76.5679 41.1621 76.8809 44.3791 74.3759C49.7621 68.6029 53.8081 62.2738 56.5151 55.3878C62.8431 42.9578 68.7461 30.4569 74.2241 17.8859C77.9411 11.1679 80.0271 4.51286 80.4821 -2.07914C75.7051 -14.0731 70.6371 -25.8431 67.3711 -38.6371C67.3981 -41.9461 65.6911 -42.5812 62.2501 -40.5412C56.2231 -35.5092 51.3421 -29.6781 47.6091 -23.0471C39.5341 -11.3271 31.8431 0.535859 24.5381 12.5419C19.8931 18.8339 16.7851 25.3248 15.2151 32.0128Z" fill="black"/>
<path opacity="0.1091" d="M31.367 27.838C33.917 35.947 37.512 43.397 42.151 50.185C47.416 56.736 52.71 63.263 58.035 69.765C60.394 72.66 64.929 72.413 68.364 68.825C71.331 65.725 76.0521 59.142 73.4281 56.214C69.3631 51.706 65.32 47.179 61.299 42.633C56.729 38.342 53.555 33.012 51.779 26.642C52.028 27.334 52.2781 28.026 52.5271 28.718C51.2161 24.694 49.904 20.671 48.593 16.647C47.424 13.061 43.721 10.494 39.042 13.74C36.612 15.425 34.702 18.269 33.176 20.602C31.281 23.499 30.347 25.242 31.367 27.838Z" fill="black"/>
<path opacity="0.1091" d="M-14.0528 21.653C-11.3938 29.324 -7.74785 36.348 -3.11485 42.726C2.09515 49.519 7.34115 56.283 12.6221 63.018C14.4191 65.322 19.2991 66.235 22.7691 63.334C25.5361 61.02 29.3991 51.409 27.6541 49.149C22.4231 42.428 17.2441 35.666 12.1171 28.861C7.87214 22.321 4.52818 15.218 2.08718 7.55003C0.947175 4.63204 -4.38583 3.88104 -7.79283 6.53104C-11.0208 9.04104 -15.2858 18.761 -14.0528 21.653Z" fill="black"/>
<path opacity="0.1091" d="M-24.524 53.6767C-22.254 61.4217 -18.824 68.4287 -14.234 74.6977C-9.58702 81.6767 -4.95801 88.6697 -0.349009 95.6767C1.43099 96.8577 3.49598 96.6417 5.84698 95.0277C8.08598 93.0637 9.42003 90.8357 9.85003 88.3437C11.497 84.1207 12.644 79.9047 13.29 75.6957C14.557 70.3467 15.169 65.1246 15.126 60.0286C9.80003 48.8226 4.63902 37.6537 -0.0219822 26.0517C0.267018 27.1647 0.555985 28.2777 0.843985 29.3907C-0.302015 24.8827 -1.448 20.3747 -2.594 15.8677C-3.931 14.2397 -5.86302 14.0287 -8.39002 15.2347C-11.888 17.7087 -14.262 20.8627 -15.51 24.6987C-18.584 30.9367 -21.222 37.2227 -23.424 43.5557C-25.363 47.3147 -25.73 50.6887 -24.524 53.6767Z" fill="black"/>
<path opacity="0.1091" d="M7.89111 53.6098C10.1851 61.4148 13.5821 68.5258 18.0841 74.9428C22.6141 81.8068 27.1511 88.6668 31.6951 95.5218C32.4791 98.0928 34.3511 98.4368 37.3101 96.5538C42.0381 92.2428 45.5151 87.2918 47.7411 81.6988C52.9861 71.8978 57.8091 62.0198 62.2111 52.0638C65.3631 46.6418 66.8961 41.3328 66.8101 36.1368C61.3831 24.4108 55.6921 13.0148 52.1901 0.207775C49.5951 -9.28222 36.8511 8.28077 34.6851 11.0278C27.8771 19.9538 21.4381 29.0458 15.3701 38.3028C11.3651 43.2078 8.87311 48.3108 7.89111 53.6098Z" fill="black"/>
</g>
</g>
</svg>
