<svg width="65" height="70" viewBox="0 0 65 70" fill="none" xmlns="http://www.w3.org/2000/svg">
<path d="M51.4781 69.604L64.5671 54.384L61.6521 5.48502L24.0711 0.5L6.96915 5.48502L0.515137 60.86L24.0711 69.604L51.4781 69.604Z" fill="#4198FF"/>
<path d="M20.5921 39.05V39.05C20.5926 35.098 22.2854 31.9633 24.9593 29.8275C27.6228 27.7 31.2386 26.578 35.0921 26.578C37.8472 26.578 40.2062 27.4471 41.8785 29.0931C43.5522 30.7405 44.4891 33.1184 44.4891 36.041C44.4891 39.9931 42.7963 43.1278 40.1223 45.2636C37.4586 47.391 33.8426 48.513 29.9891 48.513C27.2341 48.513 24.875 47.644 23.2027 45.998C21.529 44.3506 20.5921 41.9727 20.5921 39.05ZM29.0741 63.082C37.024 63.082 43.7428 60.1238 48.4759 55.1184C53.2112 50.1108 55.9851 43.0259 55.9851 34.7321C55.9851 27.6992 53.905 22.0204 50.3885 18.1063C46.876 14.1965 41.8959 12.0081 36.0081 12.0081C28.0583 12.0081 21.3395 14.9665 16.6063 19.9721C11.8711 24.9798 9.09711 32.0647 9.09711 40.358C9.09711 47.3909 11.177 53.0697 14.6933 56.9838C18.2058 60.8935 23.1859 63.082 29.0741 63.082Z" fill="#FFC047" stroke="black"/>
</svg>
