<svg width="58" height="56" viewBox="0 0 58 56" fill="none" xmlns="http://www.w3.org/2000/svg">
<path d="M57.979 25.2C57.8482 22.0356 57.0729 18.927 55.6974 16.0519C54.2001 12.9145 52.0816 10.0903 49.4612 7.73815C43.9481 2.74808 36.6815 1.34976e-10 29.0001 1.34976e-10C23.2644 -1.71911e-05 17.6575 1.64214 12.8885 4.71882C8.11946 7.7955 4.40245 12.1685 2.20751 17.2848C0.0125627 22.4012 -0.561733 28.0311 0.557244 33.4625C1.67622 38.894 4.43821 43.8832 8.49395 47.799C13.8963 53.015 21.2122 55.962 28.8521 55.9996C36.492 56.0373 43.8387 53.1625 49.2958 47.9999L46.5891 45.3334C41.9 49.79 35.5798 52.2813 29.0001 52.2667C15.1416 52.2667 3.86676 41.3806 3.86676 28C3.86676 14.6194 15.1416 3.73333 29.0001 3.73333C42.6237 3.73333 54.1333 13.9912 54.1333 26.1333V30.3333C54.1333 33.6785 51.0978 36.4 47.3667 36.4C43.6356 36.4 40.6 33.6785 40.6 30.3333V16.8H36.7334V19.9209C34.9391 18.3118 32.6807 17.2672 30.2576 16.9254C27.8344 16.5836 25.3609 16.9608 23.1649 18.0071C20.9688 19.0533 19.1539 20.7192 17.9606 22.7839C16.7673 24.8486 16.2521 27.2147 16.4831 29.5686C16.7141 31.9225 17.6805 34.153 19.2542 35.9646C20.8279 37.7761 22.9347 39.0832 25.2952 39.7125C27.6557 40.3419 30.1586 40.2638 32.4721 39.4886C34.7856 38.7135 36.8005 37.2778 38.2498 35.3719C40.1114 38.2223 43.5012 40.1333 47.3667 40.1333C53.2299 40.1333 58 35.7371 58 30.3333V25.2H57.979ZM28.5167 36.4C26.8916 36.4 25.303 35.9347 23.9518 35.063C22.6006 34.1913 21.5474 32.9522 20.9255 31.5026C20.3036 30.053 20.1409 28.4579 20.4579 26.9189C20.775 25.38 21.5575 23.9664 22.7067 22.8569C23.8558 21.7475 25.3199 20.9919 26.9137 20.6858C28.5076 20.3797 30.1597 20.5368 31.6611 21.1372C33.1625 21.7377 34.4458 22.7545 35.3486 24.0591C36.2515 25.3638 36.7334 26.8976 36.7334 28.4667C36.7309 30.57 35.8644 32.5865 34.3241 34.0737C32.7837 35.561 30.6952 36.3976 28.5167 36.4Z" fill="black"/>
</svg>
