<svg width="65" height="65" viewBox="0 0 65 65" fill="none" xmlns="http://www.w3.org/2000/svg">
<path d="M32.0177 2.66813C24.316 2.58987 16.8983 5.57269 11.3949 10.961C5.89149 16.3494 2.75261 23.7024 2.66814 31.404C2.69782 37.4905 4.65575 43.411 8.26073 48.3151C11.8657 53.2192 16.9322 56.8546 22.7326 58.6991C24.2 58.9659 24.7337 58.0854 24.7337 57.3117C24.7337 56.5379 24.7337 54.8303 24.7337 52.429C16.5692 54.1632 14.8349 48.5868 14.8349 48.5868C14.2914 46.8363 13.1359 45.3398 11.5797 44.3712C8.91159 42.6102 11.7932 42.6369 11.7932 42.6369C12.7154 42.7602 13.5978 43.0907 14.3741 43.6036C15.1504 44.1165 15.8005 44.7985 16.2757 45.5985C17.1037 47.0343 18.4623 48.0876 20.0591 48.5317C21.6559 48.9758 23.3633 48.7753 24.8137 47.9732C24.9629 46.512 25.6245 45.1509 26.6814 44.131C20.1711 43.4106 13.3407 40.956 13.3407 29.9365C13.2825 27.0621 14.3446 24.2777 16.3023 22.1722C15.4107 19.7044 15.516 16.9862 16.5958 14.5947C16.5958 14.5947 19.0772 13.821 24.6003 17.5297C29.408 16.2485 34.4673 16.2485 39.275 17.5297C44.8781 13.821 47.2794 14.5947 47.2794 14.5947C48.3593 16.9862 48.4646 19.7044 47.5729 22.1722C49.5762 24.2391 50.6959 27.0048 50.6947 29.8832C50.6947 40.9293 43.8109 43.3573 37.354 44.0777C38.061 44.7641 38.6071 45.5987 38.9531 46.5213C39.2991 47.444 39.4364 48.4319 39.3551 49.414V57.285C39.3551 57.285 39.8887 58.9659 41.3562 58.6724C47.1401 56.8165 52.1895 53.1802 55.7833 48.283C59.3772 43.3859 61.3315 37.4783 61.3672 31.404C61.2828 23.7024 58.1439 16.3494 52.6405 10.961C47.137 5.57269 39.7194 2.58987 32.0177 2.66813Z" fill="#231F20"/>
</svg>
