<svg width="191" height="209" viewBox="0 0 191 209" fill="none" xmlns="http://www.w3.org/2000/svg">
<path d="M71.637 191.257L70.619 200.059L70.376 202.144C70.145 204.126 68.472 205.62 66.476 205.618C55.779 205.606 24.016 205.14 20.77 200.06C19.173 197.567 18.465 194.585 18.482 191.542C18.534 182.852 24.542 173.638 32.915 173.792C44.223 173.998 39.104 189.745 39.104 189.745L71.637 191.257Z" fill="#EF8817" stroke="black" stroke-width="0.5" stroke-miterlimit="10"/>
<path d="M70.618 200.059L70.362 202.248C70.138 204.171 68.514 205.619 66.579 205.618C55.985 205.609 24.025 205.157 20.769 200.06C19.172 197.567 18.464 194.585 18.481 191.542C22.884 195.435 35.737 202.311 70.618 200.059Z" fill="white" stroke="black" stroke-width="0.5" stroke-miterlimit="10"/>
<path d="M39.3931 189.573L32.9661 192.168" stroke="black" stroke-width="0.5" stroke-miterlimit="10"/>
<path d="M91.8811 191.999L92.1421 200.856L92.2061 202.954C92.2671 204.948 93.8061 206.58 95.7941 206.749C106.453 207.653 138.139 209.908 141.808 205.124C143.613 202.777 144.573 199.866 144.816 196.833C145.508 188.17 140.312 178.476 131.956 177.913C120.672 177.15 124.424 193.278 124.424 193.278L91.8811 191.999Z" fill="#EF8817" stroke="black" stroke-width="0.5" stroke-miterlimit="10"/>
<path d="M92.1431 200.856L92.2101 203.058C92.2691 204.993 93.7621 206.575 95.6911 206.739C106.246 207.637 138.128 209.923 141.809 205.123C143.614 202.776 144.574 199.865 144.817 196.832C140.098 200.336 126.703 206.086 92.1431 200.856Z" fill="white" stroke="black" stroke-width="0.5" stroke-miterlimit="10"/>
<path d="M124.151 193.082L130.332 196.217" stroke="black" stroke-width="0.5" stroke-miterlimit="10"/>
<path d="M93.236 142.22C93.21 143.329 93.227 144.42 93.288 145.512C93.288 145.512 88.853 148.624 77.077 148.28C67.381 147.996 62.302 145.847 62.302 145.847C62.302 145.847 62.259 144.059 62.525 141.059C62.585 140.414 62.654 139.71 62.748 138.962C63.075 136.237 63.642 132.851 64.622 129.094C67.347 118.608 73.269 105.19 86.119 94.996L89.901 96.036L98.204 98.305L105.656 100.351C105.656 100.351 94.886 119.88 93.399 138.893C93.313 139.933 93.261 140.973 93.236 142.005V142.22Z" fill="#55C400" stroke="black" stroke-width="0.5" stroke-miterlimit="10"/>
<path d="M105.656 100.352C105.656 100.352 94.886 119.881 93.399 138.894C85.302 128.94 72.512 128.33 64.621 129.095C67.346 118.609 73.268 105.191 86.118 94.997L89.9 96.037C86.462 101.495 76.861 117.732 83.015 119.786C89.651 121.995 96.785 102.406 98.203 98.306L105.656 100.352Z" fill="black" stroke="black" stroke-width="0.5" stroke-miterlimit="10"/>
<path d="M93.287 145.513C93.287 145.513 88.852 148.625 77.076 148.281C67.38 147.997 62.301 145.848 62.301 145.848C62.301 145.848 62.258 144.06 62.524 141.06C66.028 142.283 70.988 143.598 77.037 143.914C83.818 144.268 89.424 143.235 93.235 142.22C93.21 143.329 93.227 144.421 93.287 145.513Z" fill="white" stroke="black" stroke-width="0.5" stroke-miterlimit="10"/>
<path d="M62.301 145.848C58.171 149.186 51.978 155.044 46.927 164.014C41.052 174.447 39.49 184.176 39.016 189.745C50.654 190.828 62.292 191.912 73.93 192.995L75.379 155.015H78.414L87.058 193.381L124.394 193.226C122.703 186.272 118.64 173.936 108.209 162.537C103.256 157.125 98.139 153.313 93.881 150.67C93.736 149.872 93.605 149.02 93.502 148.118C93.404 147.258 93.333 146.39 93.288 145.515C93.288 145.515 82.272 150.737 62.301 145.848Z" fill="#4C7BD2" stroke="black" stroke-width="0.5" stroke-miterlimit="10"/>
<path d="M72.804 155.037H80.483" stroke="black" stroke-width="0.5" stroke-miterlimit="10"/>
<path d="M102.408 99.463C97.4901 108.462 89.7001 123.015 83.8351 131.641C80.8121 136.095 78.3021 138.968 76.9521 138.695C75.7931 138.463 75.8641 134.775 76.6191 129.474C77.8991 120.323 81.1841 106.386 83.5321 97.185C84.3581 96.439 85.2251 95.714 86.1221 94.998L87.2101 95.3C86.5451 97.971 85.7691 101.226 84.9531 104.672C83.8441 109.368 82.6861 114.427 81.6981 118.871C80.6001 123.799 79.7131 127.981 79.3501 130.077C79.3401 130.148 79.3301 130.208 79.3201 130.268C79.1081 131.578 78.9471 132.888 78.8161 134.208C79.0481 133.855 79.8141 132.535 80.9531 130.54C82.6861 127.497 85.2861 122.871 88.1891 117.741C90.7081 113.287 93.4601 108.449 96.0701 103.925C97.1381 102.071 98.1861 100.277 99.1741 98.574L102.408 99.463Z" fill="#FCF500" stroke="black" stroke-width="0.5" stroke-miterlimit="10"/>
<path d="M82.0091 142.399C82.0091 145.562 79.4451 148.126 76.2821 148.126C73.1191 148.126 70.5551 145.562 70.5551 142.399C70.5551 139.236 73.1191 136.672 76.2821 136.672C79.4441 136.672 82.0091 139.236 82.0091 142.399Z" fill="#FCF500" stroke="black" stroke-width="0.5" stroke-miterlimit="10"/>
<path d="M168.463 50.369C164.206 34.979 149.632 24.962 129.481 32.87C129.096 20.795 121.025 9.677 107.272 7.163C92.762 4.51 79.029 12.096 75.146 24.373C72.792 23.184 70.235 22.261 67.506 21.675C52.012 18.345 37.025 26.931 34.033 40.853C31.732 51.557 37.197 62.294 46.887 68.201C37.991 74.621 33.392 85.244 36.122 95.459C39.773 109.119 55.144 116.876 70.455 112.785C77.807 110.82 83.802 106.477 87.651 100.984C87.72 102.291 87.9 103.605 88.2 104.917C91.354 118.7 106.74 128.923 122.135 125.047C141.558 120.157 149.656 98.599 139.877 83.442C160.896 83.44 172.107 63.541 168.463 50.369Z" fill="#EF2E2E" stroke="black" stroke-width="0.5" stroke-miterlimit="10"/>
<path d="M46.064 36.85L67.111 52.358" stroke="black" stroke-width="0.5" stroke-miterlimit="10"/>
<path d="M51.2329 99.25L70.4339 85.589" stroke="black" stroke-width="0.5" stroke-miterlimit="10"/>
<path d="M124.711 114.02L112.157 94.45" stroke="black" stroke-width="0.5" stroke-miterlimit="10"/>
<path d="M124.711 63.065L150.927 50.142" stroke="black" stroke-width="0.5" stroke-miterlimit="10"/>
<path d="M96.087 101.802C115.738 101.802 131.669 85.8714 131.669 66.22C131.669 46.5686 115.738 30.638 96.087 30.638C76.4356 30.638 60.505 46.5686 60.505 66.22C60.505 85.8714 76.4356 101.802 96.087 101.802Z" fill="#FCF500" stroke="black" stroke-width="0.5" stroke-miterlimit="10"/>
<path d="M118.404 78.821C119.634 71.489 123.612 43.262 112.061 42.75C108.914 42.608 106.675 45.146 105.066 48.915C101.691 56.918 101.21 70.511 101.16 76.202C106.964 75.094 113.007 76.291 118.404 78.821Z" fill="white" stroke="black" stroke-width="0.5" stroke-miterlimit="10"/>
<path d="M120.588 58.495C120.588 58.495 129.745 65.439 138.355 58.362" stroke="black" stroke-width="0.5" stroke-miterlimit="10"/>
<path d="M119.861 58.555C119.861 58.555 127.357 68.435 137.708 64.305" stroke="black" stroke-width="0.5" stroke-miterlimit="10"/>
<path d="M120.021 59.051C120.021 59.051 123.971 70.807 135.099 70.197" stroke="black" stroke-width="0.5" stroke-miterlimit="10"/>
<path d="M107.365 75.853C109.885 74.325 111.969 71.692 113.151 68.409L106.003 64.913L114.013 64.87C114.042 64.664 114.082 64.463 114.104 64.255C114.931 56.639 110.934 49.934 105.065 48.915C101.69 56.918 101.209 70.511 101.159 76.202C103.212 75.81 105.292 75.71 107.365 75.853Z" fill="black" stroke="black" stroke-width="0.5" stroke-miterlimit="10"/>
<path d="M121.324 59.79L101.937 58.196C101.937 58.196 103.785 41.181 112.317 41.937C122.832 42.869 121.324 59.79 121.324 59.79Z" fill="#FCF500" stroke="black" stroke-width="0.5" stroke-miterlimit="10"/>
<path d="M86.474 75.269C87.809 67.005 91.231 40.381 80.018 39.884C76.871 39.742 74.632 42.28 73.023 46.049C69.584 54.203 69.15 68.139 69.115 73.628C74.71 71.738 81.094 72.617 86.474 75.269Z" fill="white" stroke="black" stroke-width="0.5" stroke-miterlimit="10"/>
<path d="M70.104 54.384C70.104 54.384 59.67 59.2 52.78 50.44" stroke="black" stroke-width="0.5" stroke-miterlimit="10"/>
<path d="M70.801 54.599C70.801 54.599 61.358 62.639 52.135 56.383" stroke="black" stroke-width="0.5" stroke-miterlimit="10"/>
<path d="M70.538 55.049C70.538 55.049 64.156 65.682 53.418 62.698" stroke="black" stroke-width="0.5" stroke-miterlimit="10"/>
<path d="M75.882 72.622C77.936 71.199 79.659 69.023 80.777 66.363L73.201 62.658L81.881 62.611C81.952 62.209 82.018 61.804 82.063 61.39C82.89 53.773 78.893 47.069 73.024 46.05C69.585 54.204 69.152 68.14 69.116 73.629C71.287 72.895 73.575 72.578 75.882 72.622Z" fill="black" stroke="black" stroke-width="0.5" stroke-miterlimit="10"/>
<path d="M88.627 56.733L69.27 55.39C69.27 55.39 70.901 38.352 79.421 38.998C89.921 39.794 88.627 56.733 88.627 56.733Z" fill="#FCF500" stroke="black" stroke-width="0.5" stroke-miterlimit="10"/>
<path d="M68.2887 87.3096L93.9795 80.6028L93.3487 78.1867L67.658 84.8935L68.2887 87.3096Z" fill="white" stroke="black" stroke-width="0.5" stroke-miterlimit="10"/>
<path d="M94.142 68.99L94.682 73.362C94.682 73.362 88.302 73.203 88.754 76.756C89.134 79.746 93.74 79.241 93.74 79.241C93.74 79.241 88.7 79.299 89.173 83.131C89.532 86.038 96.355 84.443 96.355 84.443" fill="#FCF500"/>
<path d="M94.142 68.99L94.682 73.362C94.682 73.362 88.302 73.203 88.754 76.756C89.134 79.746 93.74 79.241 93.74 79.241C93.74 79.241 88.7 79.299 89.173 83.131C89.532 86.038 96.355 84.443 96.355 84.443" stroke="black" stroke-width="0.5" stroke-miterlimit="10"/>
<path d="M90.2629 67.998C90.2949 69.82 91.9069 71.269 93.8639 71.235C95.8209 71.201 97.3819 69.697 97.3499 67.875C97.3179 66.053 95.7059 64.604 93.7489 64.638C91.7919 64.672 90.2309 66.176 90.2629 67.998Z" fill="#EF2E2E" stroke="black" stroke-width="0.5" stroke-miterlimit="10"/>
<path d="M125.916 39.102C125.916 39.102 135.408 32.532 138.129 24.156C140.19 17.814 136.64 10.534 131.139 7.79401C126.619 5.54301 115.011 2.37601 106.618 8.44901L105.25 8.392C105.25 8.392 85.941 -5.14001 75.611 2.77899C64.808 11.061 69.345 21.434 74.264 27.714L125.916 39.102Z" fill="#F59DC4" stroke="black" stroke-width="0.5" stroke-miterlimit="10"/>
<path d="M109.788 6.14099C109.628 8.27299 107.77 9.87201 105.638 9.71201C103.506 9.55201 101.907 7.69399 102.067 5.56299C102.227 3.43099 104.085 1.83201 106.217 1.99201C108.349 2.15101 109.948 4.00899 109.788 6.14099Z" fill="#55C400" stroke="black" stroke-width="0.5" stroke-miterlimit="10"/>
<path d="M72.655 25.978C72.655 25.978 96.949 24.274 125.915 39.102C125.915 39.102 80.295 49.302 61.553 34.919C61.553 34.919 54.162 26.835 72.655 25.978Z" fill="#2F66CB" stroke="black" stroke-width="0.5" stroke-miterlimit="10"/>
<path d="M95.681 14.418C95.962 13.298 96.781 12.393 97.884 12.05C99.393 11.581 101.853 11.749 103.75 15.728C106.6 12.366 108.982 12.827 110.321 13.666C111.3 14.279 111.86 15.363 111.846 16.518C111.774 22.467 102.303 26.988 102.266 27.006C102.245 26.989 94.23 20.192 95.681 14.418Z" fill="#EF2E2E"/>
<path d="M59.474 118.766C59.474 118.766 68.935 105.709 74.378 110.611C79.259 115.008 65.071 126.708 60.841 125.006C56.611 123.304 59.474 118.766 59.474 118.766Z" fill="white" stroke="black" stroke-width="0.5" stroke-miterlimit="10"/>
<path d="M77.108 169.15L49.216 174.702L37.965 176.946L36.529 166.872L30.17 127.914L71.22 120.13L77.108 169.15Z" fill="white" stroke="black" stroke-width="0.5" stroke-miterlimit="10"/>
<path d="M50.25 139.56L51.59 147.597C51.061 148.152 50.326 148.507 49.383 148.665C48.656 148.786 48.054 148.734 47.579 148.508C47.081 148.281 46.784 147.882 46.689 147.311L46.421 145.709L46.996 145.614C47.216 145.577 47.35 145.525 47.398 145.459C47.444 145.393 47.458 145.296 47.436 145.167L44.897 145.59C44.919 145.719 44.958 145.809 45.016 145.857C45.074 145.904 45.195 145.914 45.378 145.884L45.992 145.782L46.439 148.458C46.069 148.798 45.705 149.044 45.349 149.197C44.993 149.351 44.621 149.46 44.232 149.525C43.505 149.646 42.902 149.594 42.428 149.369C41.93 149.142 41.634 148.743 41.538 148.172L40.196 140.127C40.426 139.785 40.735 139.498 41.121 139.27C41.507 139.043 41.923 138.891 42.371 138.816C43.023 138.708 43.602 138.777 44.109 139.026C44.66 139.31 44.991 139.776 45.098 140.423L45.338 141.863L46.366 141.692C46.342 141.552 46.301 141.46 46.241 141.417C46.181 141.375 46.095 141.362 45.981 141.381L45.706 141.427L45.346 139.269C45.577 138.926 45.885 138.64 46.271 138.412C46.657 138.185 47.074 138.033 47.521 137.958C48.173 137.85 48.752 137.919 49.259 138.168C49.813 138.448 50.142 138.913 50.25 139.56Z" fill="#EC3F8C" stroke="white" stroke-width="0.5" stroke-miterlimit="10"/>
<path d="M55.6691 138.25L57.063 146.603C56.851 146.86 56.5491 147.095 56.1591 147.31C55.7671 147.525 55.2761 147.682 54.6831 147.78C54.0911 147.879 53.5641 147.831 53.1051 147.636C52.5881 147.428 52.2861 147.063 52.1991 146.541L50.8051 138.189C51.0181 137.932 51.3191 137.696 51.7101 137.48C52.1011 137.265 52.5911 137.109 53.1771 137.011C53.7661 136.913 54.2951 136.959 54.7701 137.145C55.2831 137.364 55.5841 137.732 55.6691 138.25Z" fill="#EC3F8C" stroke="white" stroke-width="0.5" stroke-miterlimit="10"/>
<path d="M62.3551 144.53L62.5621 145.766C62.3571 146.006 62.0511 146.224 61.6411 146.422C61.2311 146.622 60.7921 146.759 60.3231 146.837C59.6541 146.949 59.0851 146.912 58.6161 146.723C58.0821 146.509 57.7671 146.12 57.6731 145.559L56.3921 137.878C56.3631 137.707 56.4521 137.514 56.6581 137.302C56.8641 137.091 57.1631 136.881 57.5541 136.67C58.3931 136.219 59.3841 135.9 60.5261 135.71C62.1051 135.447 63.4291 135.629 64.4981 136.26C65.5681 136.891 66.2131 137.87 66.4351 139.199C66.6571 140.529 66.4061 141.632 65.6831 142.512C64.9851 143.349 63.9151 143.887 62.4711 144.128C62.1421 144.183 61.7841 144.204 61.3961 144.187C61.0081 144.172 60.7441 144.145 60.6061 144.107C60.5701 144.157 60.5581 144.219 60.5711 144.295C60.6171 144.57 61.2121 144.649 62.3551 144.53ZM61.5441 140.909C61.5691 140.922 61.6321 140.92 61.7341 140.902C61.8361 140.885 61.9081 140.832 61.9491 140.743C61.9891 140.652 61.9941 140.517 61.9641 140.333L61.8621 139.719C61.8291 139.524 61.7831 139.389 61.7231 139.314C61.6641 139.238 61.5811 139.209 61.4771 139.226C61.3711 139.244 61.3011 139.266 61.2671 139.295C61.2771 139.321 61.2871 139.366 61.2981 139.431L61.5441 140.909Z" fill="#EC3F8C" stroke="white" stroke-width="0.5" stroke-miterlimit="10"/>
<path d="M49.713 153.251L51.053 161.289C50.526 161.842 49.789 162.197 48.847 162.355C48.119 162.477 47.517 162.424 47.043 162.199C46.544 161.973 46.248 161.573 46.153 161.002L45.885 159.4L46.459 159.305C46.68 159.268 46.814 159.217 46.861 159.15C46.908 159.085 46.921 158.987 46.899 158.858L44.36 159.281C44.382 159.41 44.422 159.5 44.48 159.548C44.537 159.597 44.658 159.605 44.841 159.575L45.456 159.473L45.902 162.15C45.532 162.489 45.169 162.735 44.812 162.888C44.455 163.043 44.083 163.152 43.694 163.216C42.967 163.338 42.365 163.285 41.89 163.061C41.393 162.834 41.096 162.434 41 161.863L39.658 153.817C39.889 153.475 40.197 153.188 40.583 152.96C40.969 152.734 41.385 152.582 41.834 152.508C42.485 152.399 43.065 152.467 43.571 152.717C44.123 153 44.453 153.467 44.561 154.113L44.801 155.553L45.827 155.382C45.804 155.242 45.762 155.151 45.703 155.107C45.643 155.066 45.556 155.052 45.443 155.072L45.168 155.117L44.808 152.959C45.038 152.617 45.346 152.33 45.732 152.102C46.118 151.876 46.535 151.724 46.982 151.649C47.634 151.541 48.214 151.609 48.721 151.859C49.275 152.139 49.605 152.605 49.713 153.251Z" fill="#EC3F8C" stroke="white" stroke-width="0.5" stroke-miterlimit="10"/>
<path d="M57.1 161.094C56.14 161.254 55.2269 161.202 54.3609 160.94C53.4939 160.676 52.7479 160.179 52.1199 159.443C51.4939 158.709 51.0789 157.73 50.8739 156.506C50.5789 154.733 50.881 153.258 51.782 152.083C52.583 151.047 53.7309 150.403 55.2239 150.153C56.8459 149.882 58.215 150.172 59.328 151.019C60.441 151.866 61.1359 153.109 61.4089 154.748C61.7129 156.571 61.4389 158.045 60.5849 159.174C59.8089 160.197 58.647 160.836 57.1 161.094ZM56.45 155.202C56.36 154.664 56.2739 154.297 56.1919 154.104C56.1089 153.91 56.0039 153.823 55.8739 153.844C55.7929 153.858 55.725 153.897 55.669 153.962C55.696 154.057 55.734 154.183 55.782 154.343C55.83 154.499 55.8989 154.844 55.9869 155.372L56.075 155.897C56.136 156.264 56.1729 156.533 56.1849 156.702C56.1959 156.871 56.2069 157.016 56.2149 157.137C56.2209 157.203 56.2259 157.268 56.2319 157.334C56.3059 157.377 56.383 157.392 56.463 157.378C56.593 157.356 56.6649 157.24 56.6799 157.031C56.6949 156.82 56.6569 156.445 56.5669 155.907L56.45 155.202Z" fill="#EC3F8C" stroke="white" stroke-width="0.5" stroke-miterlimit="10"/>
<path d="M67.3089 157.305L67.5159 158.542C67.3109 158.781 67.0049 159.001 66.5949 159.198C66.1849 159.397 65.7459 159.535 65.2769 159.613C64.6079 159.724 64.0389 159.687 63.5709 159.499C63.0359 159.284 62.7219 158.896 62.6279 158.336L61.3469 150.654C61.3179 150.483 61.4069 150.29 61.6129 150.078C61.8189 149.866 62.1179 149.656 62.5089 149.446C63.3489 148.996 64.3379 148.676 65.4819 148.486C67.0619 148.222 68.3849 148.405 69.4539 149.036C70.5239 149.667 71.1689 150.645 71.3909 151.975C71.6119 153.304 71.3619 154.407 70.6379 155.288C69.9409 156.125 68.8709 156.663 67.4269 156.904C67.0979 156.959 66.7399 156.979 66.3519 156.963C65.9639 156.947 65.7009 156.921 65.5609 156.883C65.5259 156.932 65.5139 156.995 65.5269 157.071C65.5699 157.345 66.1649 157.424 67.3089 157.305ZM66.4969 153.683C66.5219 153.697 66.5849 153.694 66.6869 153.677C66.7889 153.66 66.8609 153.607 66.9019 153.517C66.9419 153.427 66.9469 153.291 66.9169 153.107L66.8149 152.493C66.7829 152.299 66.7359 152.164 66.6759 152.089C66.6159 152.013 66.5329 151.984 66.4289 152C66.3239 152.018 66.2539 152.04 66.2199 152.07C66.2299 152.096 66.2399 152.14 66.2499 152.205L66.4969 153.683Z" fill="#EC3F8C" stroke="white" stroke-width="0.5" stroke-miterlimit="10"/>
<path d="M67.181 129.482C66.533 129.482 66.531 130.49 67.181 130.49C67.83 130.49 67.831 129.482 67.181 129.482Z" fill="#EC3F8C"/>
<path d="M37.355 138.583C36.058 138.583 36.056 140.599 37.355 140.599C38.652 140.599 38.654 138.583 37.355 138.583Z" fill="#EC3F8C"/>
<path d="M70.8879 162.511C69.5909 162.511 69.5889 164.527 70.8879 164.527C72.1849 164.527 72.1869 162.511 70.8879 162.511Z" fill="#EC3F8C"/>
<path d="M66.0019 132.011C64.7049 132.011 64.7029 134.027 66.0019 134.027C67.2979 134.027 67.3009 132.011 66.0019 132.011Z" fill="#EC3F8C"/>
<path d="M35.165 142.12C34.517 142.12 34.515 143.128 35.165 143.128C35.813 143.128 35.814 142.12 35.165 142.12Z" fill="#EC3F8C"/>
<path d="M68.529 133.021C67.881 133.021 67.879 134.029 68.529 134.029C69.178 134.028 69.179 133.021 68.529 133.021Z" fill="#EC3F8C"/>
<path d="M66.3389 163.858C65.6909 163.858 65.6889 164.866 66.3389 164.866C66.9869 164.865 66.9879 163.858 66.3389 163.858Z" fill="#EC3F8C"/>
<path d="M72.742 159.982C72.094 159.982 72.092 160.99 72.742 160.99C73.39 160.99 73.391 159.982 72.742 159.982Z" fill="#EC3F8C"/>
<path d="M44.77 168.407C44.122 168.407 44.12 169.415 44.77 169.415C45.418 169.415 45.419 168.407 44.77 168.407Z" fill="#EC3F8C"/>
<path d="M41.2309 170.766C40.5829 170.766 40.5809 171.774 41.2309 171.774C41.8789 171.774 41.8799 170.766 41.2309 170.766Z" fill="#EC3F8C"/>
<path d="M38.7029 149.197C38.0549 149.197 38.0529 150.205 38.7029 150.205C39.3519 150.205 39.3529 149.197 38.7029 149.197Z" fill="#EC3F8C"/>
<path d="M70.0459 143.974C69.3979 143.974 69.3969 144.982 70.0459 144.982C70.6939 144.981 70.6949 143.974 70.0459 143.974Z" fill="#EC3F8C"/>
<path d="M56.2279 166.725C54.2829 166.725 54.2799 169.748 56.2279 169.748C58.1729 169.749 58.1769 166.725 56.2279 166.725Z" fill="#EC3F8C"/>
<path d="M53.363 127.632C51.418 127.632 51.414 130.655 53.363 130.655C55.309 130.655 55.312 127.632 53.363 127.632Z" fill="#EC3F8C"/>
<path d="M63.552 121.924C64.874 126.84 63.606 131.455 60.719 132.231C57.832 133.007 54.42 129.651 53.098 124.735C51.776 119.819 52.246 116.034 56.358 114.849C59.231 114.021 62.23 117.008 63.552 121.924Z" fill="white" stroke="black" stroke-width="0.5" stroke-miterlimit="10"/>
<path d="M43.6229 118.08C43.6229 118.08 49.2369 112.579 53.4599 117.596C57.6829 122.614 56.5639 133.785 50.8129 134.428C41.8039 135.435 43.6229 118.08 43.6229 118.08Z" fill="white" stroke="black" stroke-width="0.5" stroke-miterlimit="10"/>
<path d="M47.331 125.64C47.846 130.705 45.852 135.056 42.878 135.358C39.904 135.66 37.076 131.799 36.561 126.734C36.046 121.669 38.04 117.318 41.014 117.016C43.988 116.714 46.816 120.575 47.331 125.64Z" fill="white" stroke="black" stroke-width="0.5" stroke-miterlimit="10"/>
<path d="M124.768 121.495C124.768 121.495 119.135 111.063 113.918 111.48C108.701 111.897 105.155 124.416 123.098 135.057L124.768 121.495Z" fill="white" stroke="black" stroke-width="0.5" stroke-miterlimit="10"/>
<path d="M138.389 96.836C138.389 96.836 135.093 86.033 141.685 85.025C148.277 84.018 146.264 95.292 144.707 97.306L138.389 96.836Z" fill="white" stroke="black" stroke-width="0.5" stroke-miterlimit="10"/>
<path d="M152.992 118.514C152.975 118.815 152.949 119.107 152.906 119.408C152.734 120.68 152.399 121.883 151.926 123.01C148.264 123.087 143.906 122.89 139.067 122.082C133.575 121.171 128.899 119.718 125.185 118.274C125.151 117.432 125.185 116.581 125.297 115.713C125.4 114.914 125.572 114.149 125.813 113.401C127.79 107.006 134.125 102.777 140.958 103.688C148.282 104.666 153.508 111.207 152.992 118.514Z" fill="black" stroke="black" stroke-width="0.5" stroke-miterlimit="10"/>
<path d="M152.525 120.455C150.006 134.886 147.486 149.307 144.977 163.739C141.047 163.82 136.351 163.628 131.11 162.812C125.567 161.955 120.8 160.625 116.941 159.275L118.594 150.276L123.32 124.548L124.953 115.69L152.525 120.455Z" fill="#EC3F8C" stroke="black" stroke-width="0.5" stroke-miterlimit="10"/>
<path d="M115.124 158.596C115.283 157.675 116.302 157.178 117.181 157.497C121.064 158.903 125.812 160.286 131.312 161.207C136.67 162.104 141.479 162.352 145.496 162.308C145.56 162.338 146.346 162.718 146.467 163.538C146.576 164.275 146.104 165.05 145.301 165.351C141.135 165.318 136.279 165.001 130.923 164.12C125.069 163.158 119.979 161.746 115.768 160.299C115.266 159.891 115.018 159.248 115.12 158.615C115.122 158.61 115.123 158.603 115.124 158.596Z" fill="white" stroke="black" stroke-width="0.5" stroke-miterlimit="10"/>
<path d="M155.897 120.688V120.722C155.863 121.049 155.768 121.367 155.622 121.65C155.201 122.458 154.324 122.931 153.413 122.965C152.932 122.982 152.433 122.999 151.926 123.008C148.264 123.085 143.906 122.888 139.067 122.08C133.575 121.169 128.899 119.716 125.185 118.272C124.884 118.16 124.583 118.04 124.291 117.919C123.655 117.661 123.096 117.214 122.787 116.595C122.615 116.26 122.495 115.856 122.512 115.383V115.349C122.589 113.802 124.24 112.839 125.701 113.363C125.735 113.38 125.778 113.389 125.813 113.397C129.733 114.824 134.46 116.208 139.884 117.179C144.723 118.056 149.15 118.417 152.992 118.511C153.276 118.52 153.551 118.528 153.826 118.528C155.003 118.557 155.992 119.519 155.897 120.688Z" fill="white" stroke="black" stroke-width="0.5" stroke-miterlimit="10"/>
<path d="M144.729 96.891L144.431 104.623C143.339 104.167 142.179 103.849 140.958 103.686C139.454 103.488 137.975 103.531 136.566 103.798L138.48 96.184L144.729 96.891Z" fill="white" stroke="black" stroke-width="0.5" stroke-miterlimit="10"/>
<path d="M141.94 100.413C141.94 101.044 141.429 101.555 140.798 101.555C140.167 101.555 139.656 101.044 139.656 100.413C139.656 99.782 140.167 99.271 140.798 99.271C141.429 99.271 141.94 99.782 141.94 100.413Z" fill="black" stroke="black" stroke-width="0.5" stroke-miterlimit="10"/>
<path d="M136.733 127.268L132.531 153.44L118.593 150.275L123.32 124.547L136.733 127.268Z" fill="white" stroke="black" stroke-width="0.5" stroke-miterlimit="10"/>
<path d="M145.824 125.736L140.571 157.632C140.36 158.912 142.349 159.241 142.56 157.959L147.813 126.063C148.024 124.784 146.035 124.454 145.824 125.736Z" fill="#F7ABCC"/>
<path d="M141.572 129.308C141.572 129.308 135.188 138.309 147.224 138.832C159.26 139.355 163.341 129.517 158.213 126.273L141.572 129.308Z" fill="white" stroke="black" stroke-width="0.5" stroke-miterlimit="10"/>
<path d="M157.907 119.251C155.525 118.052 152.694 118.151 150.305 119.337C147.507 120.726 143.148 122.808 140.106 123.866C135.292 125.54 137.804 134.332 149.839 131.506C159.87 129.151 163.946 122.29 157.907 119.251Z" fill="white" stroke="black" stroke-width="0.5" stroke-miterlimit="10"/>
<path d="M30.1099 19.598C21.9129 22.805 21.1719 24.1 22.0309 33.721C18.7559 24.634 17.5389 23.772 8.75293 24.318C16.9499 21.111 17.6909 19.816 16.8319 10.195C20.1069 19.281 21.3239 20.143 30.1099 19.598Z" fill="#FCF500" stroke="black" stroke-width="0.5" stroke-miterlimit="10"/>
<path d="M183.109 101.126C174.332 100.461 173.102 101.306 169.704 110.347C170.694 100.739 169.971 99.434 161.818 96.116C170.595 96.782 171.824 95.936 175.223 86.894C174.233 96.502 174.956 97.807 183.109 101.126Z" fill="#FCF500" stroke="black" stroke-width="0.5" stroke-miterlimit="10"/>
<path d="M176.287 21.417C170.122 20.95 169.259 21.543 166.872 27.894C167.567 21.145 167.06 20.229 161.333 17.898C167.498 18.365 168.361 17.772 170.748 11.421C170.053 18.169 170.561 19.086 176.287 21.417Z" fill="#FCF500" stroke="black" stroke-width="0.5" stroke-miterlimit="10"/>
<path d="M189.293 60.351C185.66 60.076 185.151 60.426 183.745 64.168C184.155 60.191 183.856 59.651 180.481 58.278C184.114 58.554 184.623 58.204 186.029 54.461C185.62 58.437 185.919 58.977 189.293 60.351Z" fill="#FCF500" stroke="black" stroke-width="0.5" stroke-miterlimit="10"/>
<path d="M11.27 59.68C7.86799 60.984 7.55799 61.518 7.88599 65.502C6.55599 61.732 6.05499 61.372 2.41699 61.573C5.81899 60.269 6.12899 59.735 5.80099 55.751C7.13099 59.521 7.63199 59.881 11.27 59.68Z" fill="#FCF500" stroke="black" stroke-width="0.5" stroke-miterlimit="10"/>
<path d="M24.293 95.237C18.499 97.395 17.964 98.296 18.456 105.062C16.261 98.643 15.416 98.023 9.23901 98.305C15.033 96.147 15.568 95.246 15.076 88.48C17.272 94.899 18.117 95.519 24.293 95.237Z" fill="#FCF500" stroke="black" stroke-width="0.5" stroke-miterlimit="10"/>
</svg>
