<?xml version="1.0" encoding="UTF-8" standalone="no"?>
<svg
   xmlns:dc="http://purl.org/dc/elements/1.1/"
   xmlns:cc="http://creativecommons.org/ns#"
   xmlns:rdf="http://www.w3.org/1999/02/22-rdf-syntax-ns#"
   xmlns:svg="http://www.w3.org/2000/svg"
   xmlns="http://www.w3.org/2000/svg"
   viewBox="0 0 2000 611"
   height="611"
   width="2000"
   xml:space="preserve"
   id="svg2"
   version="1.1"><metadata
     id="metadata8"><rdf:RDF><cc:Work
         rdf:about=""><dc:format>image/svg+xml</dc:format><dc:type
           rdf:resource="http://purl.org/dc/dcmitype/StillImage" /></cc:Work></rdf:RDF></metadata><defs
     id="defs6"><clipPath
       id="clipPath20"
       clipPathUnits="userSpaceOnUse"><path
         id="path18"
         d="M 555.066,27 H 1498 V 432.258 H 555.066 Z" /></clipPath><clipPath
       id="clipPath30"
       clipPathUnits="userSpaceOnUse"><path
         id="path28"
         d="m 0.137,0.504 h 459.258 v 458.25 H 0.137 Z" /></clipPath></defs><g
     transform="matrix(1.3333333,0,0,1.3333333,0,1.5275e-5)"
     id="g10"><g
       id="g12" /><g
       id="g14"><g
         clip-path="url(#clipPath20)"
         id="g16"><path
           id="path22"
           style="fill:#335a02;fill-opacity:1;fill-rule:nonzero;stroke:none"
           d="M 626.898,428.551 H 555.109 V 30.703 H 676.457 L 709.805,273.395 743.152,30.703 H 865.426 V 428.551 H 792.707 V 141.859 L 746.855,428.551 H 675.531 L 626.898,141.859 Z m 365.895,3.707 c -32.731,0 -57.063,-9.262 -72.996,-27.789 -15.871,-18.528 -23.805,-46.008 -23.805,-82.442 V 30.703 h 77.348 v 288.082 c 0,12.66 1.234,22.539 3.703,29.641 2.473,7.101 7.719,10.652 15.75,10.652 8.027,0 13.273,-3.488 15.746,-10.465 2.469,-6.918 3.703,-16.859 3.703,-29.828 V 30.703 h 77.348 v 291.324 c 0,36.434 -7.965,63.914 -23.899,82.442 -15.871,18.527 -40.171,27.789 -72.898,27.789 z m 221.848,0 c -36.125,0 -62.215,-8.953 -78.274,-26.863 -16.055,-17.907 -24.082,-46.778 -24.082,-86.61 v -38.906 h 78.274 v 49.559 c 0,19.761 6.328,29.64 18.988,29.64 7.101,0 12.043,-2.098 14.82,-6.297 2.781,-4.136 4.168,-11.148 4.168,-21.027 0,-12.969 -1.543,-23.715 -4.629,-32.234 -3.09,-8.461 -7.043,-15.563 -11.859,-21.305 -4.754,-5.684 -13.309,-14.543 -25.656,-26.586 l -34.274,-34.274 c -26.555,-25.937 -39.832,-54.652 -39.832,-86.148 0,-33.965 7.781,-59.84 23.344,-77.625 C 1151.25,35.859 1174.039,27 1203.988,27 c 35.817,0 61.602,9.477 77.348,28.438 15.746,19.019 23.621,48.753 23.621,89.203 h -81.051 l -0.465,-27.329 c 0,-5.25 -1.48,-9.417 -4.445,-12.503 -2.902,-3.09 -6.98,-4.633 -12.226,-4.633 -6.176,0 -10.809,1.699 -13.895,5.094 -3.09,3.398 -4.633,8.031 -4.633,13.894 0,12.969 7.41,26.402 22.231,40.297 l 46.316,44.461 c 10.809,10.5 19.762,20.441 26.863,29.828 7.102,9.449 12.813,20.562 17.137,33.348 4.32,12.843 6.484,28.066 6.484,45.668 0,39.211 -7.195,68.914 -21.582,89.109 -14.328,20.254 -38.011,30.383 -71.05,30.383 z M 1498,428.551 H 1333.578 V 30.703 h 159.328 v 76.883 h -78.273 v 77.348 h 75.031 v 75.031 h -75.031 v 91.242 H 1498 Z" /></g></g><g
       id="g24"><g
         clip-path="url(#clipPath30)"
         id="g26"><path
           id="path32"
           style="fill:#99a28e;fill-opacity:1;fill-rule:nonzero;stroke:none"
           d="m 0.137,51.031 c 28.179,0.012 51.019,22.852 51.031,51.031 v 229.629 c 0,70.457 57.109,127.567 127.566,127.567 70.457,0 127.575,-57.11 127.575,-127.567 V 153.086 c -0.008,-6.77 2.679,-13.262 7.464,-18.047 4.786,-4.785 11.278,-7.473 18.047,-7.465 6.77,-0.008 13.262,2.676 18.051,7.461 4.785,4.789 7.473,11.281 7.469,18.051 v 127.566 c 0,56.313 45.695,102.063 102.051,102.063 v -51.024 c -28.18,-0.015 -51.02,-22.859 -51.028,-51.039 V 153.086 c 0,-42.281 -34.285,-76.543 -76.543,-76.543 -42.261,0 -76.543,34.262 -76.543,76.543 v 178.605 c 0,42.274 -34.285,76.543 -76.543,76.543 -42.261,0 -76.543,-34.269 -76.543,-76.543 V 102.062 C 102.191,45.719 56.496,0 0.137,0 Z" /></g></g></g></svg>