<svg width="193" height="208" viewBox="0 0 193 208" fill="none" xmlns="http://www.w3.org/2000/svg">
<path d="M37.15 152.843L37.339 150.647L30.482 150.058L30.293 152.254L30.31 152.255L28.758 170.325C27.935 170.2 26.976 170.268 25.999 170.566C23.651 171.283 22.108 173.045 22.553 174.502C22.998 175.96 25.262 176.56 27.61 175.844C28.599 175.542 29.581 175.016 30.256 174.201C30.838 173.499 31.049 172.605 31.144 171.718C31.398 169.342 31.565 166.953 31.765 164.572C31.959 162.26 32.148 159.948 32.337 157.636C32.463 156.09 32.588 154.544 32.711 152.998C32.726 152.82 32.74 152.643 32.754 152.465L37.15 152.843Z" fill="#FCF500" stroke="black" stroke-width="0.5" stroke-miterlimit="10"/>
<path d="M33.0389 60.196C32.9919 59.785 32.8449 59.423 32.5899 59.137L24.5129 40.088L24.5009 40.093L24.4849 40.056L10.1119 46.15L10.9299 48.079L10.9449 48.072L17.6749 63.945C16.9289 64.206 16.1519 64.689 15.4639 65.374C13.8099 67.02 13.2969 69.187 14.3189 70.214C15.3409 71.241 17.5099 70.739 19.1649 69.093C20.3389 67.924 20.9349 66.495 20.8179 65.396L20.8219 65.394L20.8149 65.379C20.7679 64.968 20.6209 64.605 20.3659 64.32L13.0909 47.162L23.1679 42.889L29.8979 58.762C29.1509 59.023 28.3749 59.506 27.6869 60.191C26.0329 61.837 25.5199 64.004 26.5419 65.031C27.5639 66.058 29.7329 65.555 31.3869 63.91C32.5609 62.741 33.1569 61.312 33.0399 60.213L33.0439 60.211L33.0389 60.196Z" fill="#FCF500" stroke="black" stroke-width="0.5" stroke-miterlimit="10"/>
<path d="M186.38 118.096L188.106 101.447L188.096 101.446L188.099 101.413L175.536 100.11L175.361 101.796L175.374 101.797L173.935 115.67C173.304 115.563 172.565 115.602 171.811 115.818C169.996 116.337 168.785 117.671 169.108 118.798C169.43 119.925 171.163 120.417 172.978 119.898C174.267 119.529 175.247 118.75 175.594 117.926L175.598 117.927L175.599 117.914C175.727 117.605 175.764 117.29 175.695 116.989L176.87 105.655L185.678 106.564L184.619 116.779C183.988 116.672 183.249 116.711 182.494 116.927C180.679 117.446 179.469 118.78 179.791 119.907C180.113 121.034 181.846 121.526 183.661 121.007C184.95 120.639 185.93 119.859 186.277 119.035H186.281L186.282 119.022C186.412 118.712 186.449 118.397 186.38 118.096ZM177.044 103.997L177.252 101.992L186.059 102.905L185.851 104.907L177.044 103.997Z" fill="#FCF500" stroke="black" stroke-width="0.5" stroke-miterlimit="10"/>
<path d="M155.325 38.298C153.514 33.127 145.232 35.352 147.062 40.576C153.075 57.741 142.226 79.001 122.806 79.347C117.298 79.445 117.281 88.015 122.806 87.916C147.512 87.476 163.232 60.87 155.325 38.298Z" fill="black" stroke="black" stroke-width="0.5" stroke-miterlimit="10"/>
<path d="M135.33 23.424C135.33 23.424 130.597 16.138 133.692 11.98C136.288 8.49201 139.643 12.017 139.643 12.017C142.14 5.131 147.949 10.382 147.949 10.382C147.973 10.35 147.997 10.319 148.021 10.288C149.684 8.143 152.862 7.76101 154.947 9.49801C159.928 13.647 157.416 21.178 157.416 21.178C164.836 27.191 158.068 32.41 158.068 32.41C161.56 36.963 157.045 40.401 147.203 41.64C137.361 42.879 141.329 35.347 141.329 35.347C129.735 34.042 132.582 23.351 135.33 23.424Z" fill="white" stroke="black" stroke-width="0.5" stroke-miterlimit="10"/>
<path d="M158.315 32.453C157.109 33.546 155.22 34.338 152.938 34.878" stroke="black" stroke-width="0.5" stroke-miterlimit="10"/>
<path d="M148.208 34.884C145.346 35.795 143.47 35.546 141.23 35.237" stroke="black" stroke-width="0.5" stroke-miterlimit="10"/>
<path d="M174.138 29.67L174.244 29.856L173.269 86.647L173.171 86.662L109.084 84.65L108.221 37.442L174.138 29.67Z" fill="#454545" stroke="black" stroke-width="0.5" stroke-miterlimit="10"/>
<path d="M181.276 33.576L174.285 29.666L174.155 29.678L173.212 86.578L173.432 86.616L181.623 84.074L181.276 33.576Z" fill="#454545" stroke="black" stroke-width="0.5" stroke-miterlimit="10"/>
<path d="M108.176 43.902L174.143 37.078" stroke="black" stroke-width="0.5" stroke-miterlimit="10"/>
<path d="M108.919 78.981L173.214 80.51" stroke="black" stroke-width="0.5" stroke-miterlimit="10"/>
<path d="M181.362 39.721L174.096 37.157" stroke="black" stroke-width="0.5" stroke-miterlimit="10"/>
<path d="M173.209 80.669L181.621 78.878" stroke="black" stroke-width="0.5" stroke-miterlimit="10"/>
<path d="M154.8 73.722C160.907 73.722 165.857 67.1469 165.857 59.036C165.857 50.9252 160.907 44.35 154.8 44.35C148.693 44.35 143.743 50.9252 143.743 59.036C143.743 67.1469 148.693 73.722 154.8 73.722Z" fill="white" stroke="black" stroke-width="0.5" stroke-miterlimit="10"/>
<path d="M159.159 45.538L155.526 47.666L148.305 51.91L144.355 54.23" stroke="black" stroke-width="0.5" stroke-miterlimit="10"/>
<path d="M164.625 52.295L159.634 55.339L152.595 59.64L144.559 64.552" stroke="black" stroke-width="0.5" stroke-miterlimit="10"/>
<path d="M165.746 61.111L163.482 62.515V62.526L156.578 66.804L148.984 71.524" stroke="black" stroke-width="0.5" stroke-miterlimit="10"/>
<path d="M146.709 49.035L148.305 51.91L152.595 59.64L156.578 66.804L159.612 72.259" stroke="black" stroke-width="0.5" stroke-miterlimit="10"/>
<path d="M153.794 44.418L155.526 47.666L159.634 55.339L163.482 62.515V62.526L164.863 65.106" stroke="black" stroke-width="0.5" stroke-miterlimit="10"/>
<path d="M118.565 50.808L139.926 49.529L140.855 71.847L119.438 72.052L118.565 50.808Z" fill="white" stroke="black" stroke-width="0.5" stroke-miterlimit="10"/>
<path d="M118.626 55.723L139.926 54.665" stroke="black" stroke-width="0.5" stroke-miterlimit="10"/>
<path d="M168.536 34.229C168.536 35.125 167.81 35.851 166.914 35.851C166.018 35.851 165.292 35.125 165.292 34.229C165.292 33.333 166.018 32.607 166.914 32.607C167.81 32.607 168.536 33.333 168.536 34.229Z" fill="white" stroke="black" stroke-width="0.5" stroke-miterlimit="10"/>
<path d="M162.43 34.61C162.43 35.506 161.704 36.232 160.808 36.232C159.912 36.232 159.186 35.506 159.186 34.61C159.186 33.714 159.912 32.988 160.808 32.988C161.704 32.989 162.43 33.715 162.43 34.61Z" fill="white" stroke="black" stroke-width="0.5" stroke-miterlimit="10"/>
<path d="M123.845 38.939C123.883 39.834 123.188 40.59 122.293 40.628C121.398 40.666 120.642 39.971 120.604 39.076C120.566 38.181 121.261 37.425 122.156 37.387C123.051 37.35 123.808 38.044 123.845 38.939Z" fill="white" stroke="black" stroke-width="0.5" stroke-miterlimit="10"/>
<path d="M117.762 39.578C117.8 40.473 117.105 41.229 116.21 41.267C115.315 41.305 114.559 40.61 114.521 39.715C114.483 38.82 115.178 38.064 116.073 38.026C116.968 37.989 117.724 38.684 117.762 39.578Z" fill="white" stroke="black" stroke-width="0.5" stroke-miterlimit="10"/>
<path d="M109.815 28.515L110.538 37.179L113.018 36.909L112.26 28.21L109.815 28.515Z" fill="#FCF500" stroke="black" stroke-width="0.5" stroke-miterlimit="10"/>
<path d="M173.955 20.82L179.763 20.76L179.837 39.142L176.996 38.317L177.259 23.644L173.955 23.542V20.82Z" fill="#FCF500" stroke="black" stroke-width="0.5" stroke-miterlimit="10"/>
<path d="M178.142 40.601C179.184 40.601 180.029 39.7562 180.029 38.714C180.029 37.6719 179.184 36.827 178.142 36.827C177.1 36.827 176.255 37.6719 176.255 38.714C176.255 39.7562 177.1 40.601 178.142 40.601Z" fill="#FCF500" stroke="black" stroke-width="0.5" stroke-miterlimit="10"/>
<path d="M107.622 25.228L174.265 19.468C175.356 19.924 176.071 20.992 176.071 22.166C176.071 23.306 175.398 24.348 174.354 24.825C152.186 26.729 130.019 28.634 107.851 30.538C107.705 30.424 106.468 29.418 106.494 27.732C106.516 26.284 107.452 25.385 107.622 25.228Z" fill="black" stroke="black" stroke-width="0.5" stroke-miterlimit="10"/>
<path d="M155.048 15.177C155.048 15.177 154.852 24.704 149.575 23.303C145.229 22.149 147.93 10.415 147.93 10.415" fill="white"/>
<path d="M155.048 15.177C155.048 15.177 154.852 24.704 149.575 23.303C145.229 22.149 147.93 10.415 147.93 10.415" stroke="black" stroke-width="0.5" stroke-miterlimit="10"/>
<path d="M132.651 15.012C132.651 15.012 132.559 27.731 141.256 21.45C141.256 21.45 139.83 16.388 139.623 12.051C139.623 12.051 140.289 32.391 149.575 23.304C149.575 23.304 146.139 20.827 147.49 12.994" fill="white"/>
<path d="M132.651 15.012C132.651 15.012 132.559 27.731 141.256 21.45C141.256 21.45 139.83 16.388 139.623 12.051C139.623 12.051 140.289 32.391 149.575 23.304C149.575 23.304 146.139 20.827 147.49 12.994" stroke="black" stroke-width="0.5" stroke-miterlimit="10"/>
<path d="M141.091 29.745C142.316 27.512 144.086 23.699 144.675 21.204C145.364 18.281 145.144 13.727 140.992 15.177C138.768 15.953 137.245 17.895 135.684 19.529C133.682 21.624 131.524 23.767 131.135 26.788C130.697 30.191 132.929 32.469 135.826 33.763C136.864 34.227 139.281 33.763 140.392 33.553" fill="white"/>
<path d="M141.091 29.745C142.316 27.512 144.086 23.699 144.675 21.204C145.364 18.281 145.144 13.727 140.992 15.177C138.768 15.953 137.245 17.895 135.684 19.529C133.682 21.624 131.524 23.767 131.135 26.788C130.697 30.191 132.929 32.469 135.826 33.763C136.864 34.227 139.281 33.763 140.392 33.553" stroke="black" stroke-width="0.5" stroke-miterlimit="10"/>
<path d="M140.815 104.215C140.783 106.379 140.676 108.521 140.504 110.621C140.311 113.063 140.022 115.452 139.658 117.777C139.637 117.884 139.626 117.991 139.604 118.098C139.4 119.341 139.165 120.562 138.918 121.772V121.783C138.382 124.386 137.718 126.925 136.969 129.356C136.744 130.084 136.508 130.802 136.262 131.52C129.846 150.298 117.174 163.516 101.374 165.208C85.928 166.858 71.06 157.131 60.819 140.817C60.755 140.731 60.701 140.635 60.648 140.549C58.881 137.7 57.252 134.658 55.785 131.444C55.325 130.426 54.864 129.366 54.435 128.316C54.349 128.112 54.264 127.909 54.189 127.705C53.718 126.559 53.279 125.381 52.861 124.202C52.357 122.777 51.897 121.342 51.447 119.874C51.008 118.417 50.611 116.928 50.237 115.418C49.144 111.058 48.33 106.517 47.827 101.825C46.574 90.171 47.377 78.988 49.819 69.026C55.303 46.681 69.068 30.4 86.71 28.514C105.145 26.532 122.776 40.8 132.663 63.102C136.466 71.671 139.122 81.43 140.236 91.895C140.547 94.809 140.739 97.679 140.793 100.529C140.826 101.762 140.837 102.994 140.815 104.215Z" fill="#55C400" stroke="black" stroke-width="0.5" stroke-miterlimit="10"/>
<path d="M80.551 141.942C80.498 142.788 80.423 143.634 80.337 144.481C79.844 149.323 78.859 154.079 77.638 158.781C71.307 154.528 65.566 148.38 60.821 140.817C60.757 140.731 60.703 140.635 60.65 140.549C58.883 137.7 57.254 134.658 55.787 131.444C55.327 130.426 54.866 129.366 54.437 128.316C54.351 128.112 54.266 127.909 54.191 127.705C53.72 126.559 53.281 125.381 52.863 124.202C52.359 122.777 51.899 121.342 51.449 119.874C51.01 118.417 50.613 116.928 50.239 115.418C49.146 111.058 48.332 106.517 47.829 101.825C46.576 90.171 47.379 78.988 49.821 69.026C51.888 60.607 55.123 53.055 59.312 46.799C65.975 58.903 61.786 75.014 63.34 88.468C63.897 93.256 65.15 97.648 67.1 102.05C69.092 106.538 71.578 110.78 73.913 115.097C76.194 119.317 78.315 123.634 79.547 128.294C79.729 129.001 79.89 129.708 80.029 130.426C80.755 134.208 80.819 138.096 80.551 141.942Z" fill="#FEFA8A" stroke="black" stroke-width="0.5" stroke-miterlimit="10"/>
<path d="M127.98 123.086C127.046 116.154 127.669 109.224 127.698 102.266C127.713 98.663 127.491 95.083 126.525 91.598C125.452 87.726 123.396 84.505 121.308 81.12C117.53 74.995 114.571 68.591 113.671 61.393C113.175 57.424 113.354 53.471 113.872 49.517C114.332 46.001 114.852 42.491 115.718 39.058C107.808 32.028 98.655 28.083 89.203 28.353C91.17 31.2 92.758 34.292 93.878 37.619C95.526 42.513 96.087 47.746 96.192 52.887C96.385 62.282 95.034 71.731 96.252 81.096C96.862 85.786 98.298 90.274 100.318 94.54C102.706 99.583 105.445 104.273 106.546 109.821C107.745 115.864 107.187 121.974 106.604 128.051C106.08 133.51 105.674 138.99 105.832 144.478C106.018 150.937 107.141 157.331 109.608 163.19C120.081 159.115 128.637 149.635 134.13 136.982C130.557 133.361 128.688 128.333 127.98 123.086Z" fill="#FEFA8A" stroke="black" stroke-width="0.5" stroke-miterlimit="10"/>
<path d="M57.342 195.495C57.342 195.495 55.004 206.208 58.608 207.067C64.757 208.534 111.059 206.578 111.059 206.578C111.059 206.578 116.847 188.16 87.908 194.68L88.27 188.812L57.161 190.279L57.342 195.495Z" fill="#EF2E2E" stroke="black" stroke-width="0.5" stroke-miterlimit="10"/>
<path d="M111.054 206.581C111.054 206.581 64.755 208.534 58.609 207.065C56.548 206.581 56.433 202.883 56.701 199.798C56.902 201.422 57.449 202.719 58.609 202.995C64.755 204.455 111.36 203.835 111.351 201.094C111.869 203.989 111.054 206.581 111.054 206.581Z" fill="white" stroke="black" stroke-width="0.5" stroke-miterlimit="10"/>
<path d="M80.952 199.132C81.284 198.394 81.775 197.741 82.334 197.153C82.895 196.564 83.561 196.087 84.244 195.647C84.962 195.266 85.698 194.912 86.482 194.702C87.262 194.489 88.064 194.361 88.871 194.394L88.88 194.443C85.803 195.012 82.894 196.653 80.992 199.161L80.952 199.132Z" fill="black"/>
<path d="M131.502 186.545C131.502 186.545 132.642 198.469 136.728 198.391C143.7 198.256 191.819 183.547 191.819 183.547C191.819 183.547 191.72 162.563 163.428 177.337L161.835 171.057L129.557 181.1L131.502 186.545Z" fill="#EF2E2E" stroke="black" stroke-width="0.5" stroke-miterlimit="10"/>
<path d="M191.815 183.55C191.815 183.55 143.697 198.256 136.728 198.387C134.394 198.44 133.028 194.576 132.274 191.253C133.033 192.909 134.044 194.125 135.359 194.1C142.325 193.959 191.213 180.574 190.282 177.689C191.802 180.597 191.815 183.55 191.815 183.55Z" fill="white" stroke="black" stroke-width="0.5" stroke-miterlimit="10"/>
<path d="M157.6 183.928C157.719 183.074 158.025 182.257 158.425 181.489C158.827 180.719 159.37 180.031 159.947 179.383C160.573 178.781 161.232 178.208 161.978 177.769C162.72 177.328 163.51 176.971 164.348 176.774L164.369 176.819C161.342 178.239 158.798 180.779 157.646 183.945L157.6 183.928Z" fill="black"/>
<path d="M140.816 104.219C140.784 106.379 140.678 108.517 140.507 110.624C103.972 106.166 65.65 119.263 52.862 124.2C52.362 122.785 51.894 121.349 51.447 119.88C95.111 100.325 129.464 102.665 140.816 104.219Z" fill="black" stroke="black" stroke-width="0.5" stroke-miterlimit="10"/>
<path d="M140.816 104.219C129.464 102.666 95.11 100.325 51.447 119.88C51.011 118.422 50.607 116.933 50.234 115.422C49.149 111.06 48.33 106.517 47.83 101.825C46.574 90.175 47.373 78.993 49.82 69.025C55.565 74.259 64.842 84.186 66.874 95.229C75.097 93.081 84.515 91.115 94.985 89.762C104.71 88.504 113.679 87.989 121.687 87.91L132.667 63.11C136.465 71.675 139.125 81.431 140.242 91.899C140.551 94.814 140.742 97.687 140.795 100.527C140.827 101.761 140.837 102.995 140.816 104.219Z" fill="white" stroke="black" stroke-width="0.5" stroke-miterlimit="10"/>
<path d="M95.5759 95.979C95.5609 95.287 95.8909 94.633 96.4739 94.26C97.2719 93.75 98.7209 93.457 100.449 95.457C101.564 93.061 103.014 92.95 103.922 93.223C104.585 93.422 105.081 93.961 105.256 94.631C106.157 98.083 101.397 102.198 101.379 102.214C101.365 102.208 95.6519 99.548 95.5759 95.979Z" stroke="black" stroke-width="0.5" stroke-miterlimit="10"/>
<path d="M140.461 120.901C140.44 120.99 140.429 121.078 140.407 121.167C140.203 122.196 139.968 123.207 139.721 124.209V124.218C139.186 126.373 138.521 128.475 137.772 130.488C137.547 131.091 137.311 131.685 137.065 132.279C135.812 133.024 134.366 133.787 132.705 134.532C126.91 137.148 118.501 139.604 106.611 140.456C104.961 140.58 103.237 140.669 101.448 140.722C93.7679 140.952 87.0839 140.988 81.3529 140.908C72.6769 140.775 66.1639 140.385 61.6219 139.977C61.5579 139.906 61.5039 139.826 61.4509 139.755C59.6829 137.396 58.0549 134.878 56.5879 132.217C56.1269 131.375 55.6669 130.497 55.2379 129.628C55.1519 129.459 55.0669 129.291 54.9919 129.123C58.8699 129.691 68.6389 130.95 80.8289 131.376C87.4059 131.606 94.701 131.598 102.156 131.11C103.87 130.995 105.584 130.817 107.287 130.596C115.085 129.558 122.68 127.448 128.796 125.391C134.034 123.624 138.19 121.894 140.461 120.901Z" fill="white" stroke="black" stroke-width="0.5" stroke-miterlimit="10"/>
<path d="M177.309 172.584L123.311 190.214C123.311 190.214 117.88 184.743 120.59 179.271C120.59 179.271 113.263 176.717 116.798 169.552L114.891 163.486L97.795 165.703C97.795 165.703 105.668 174.012 95.621 180.486C95.621 180.486 107.929 179.67 104.415 193.061L52.806 197.85C52.806 197.85 48.671 189.807 55.184 187.572C55.184 187.572 52.87 186.428 51.199 184.282C48.939 181.409 47.878 176.718 55.184 170.563C55.184 170.563 49.571 166.714 52.302 157.483C53.223 154.37 55.087 150.655 58.44 146.265L57.251 137.938L54.988 131.25C54.988 131.25 103.109 144.12 140.311 123.883C140.311 123.883 141.531 126.437 142.302 128.325C142.677 129.247 142.913 130.214 142.838 131.083C142.838 131.083 148.547 135.127 149.908 147.081C149.908 147.081 150.111 147.143 150.476 147.267C150.819 147.391 151.311 147.568 151.911 147.808C155.949 149.44 164.915 153.838 167.004 161.456C167.004 161.456 170.742 161.988 173.763 165.136C173.806 165.18 173.849 165.225 173.891 165.269C175.435 166.917 176.763 169.267 177.309 172.584Z" fill="#2F66CB" stroke="black" stroke-width="0.5" stroke-miterlimit="10"/>
<path d="M51.197 184.28C48.941 181.406 47.878 176.715 55.187 170.564C55.187 170.564 49.57 166.714 52.304 157.483L69.933 158.666C69.933 158.666 80.38 182.065 51.197 184.28Z" fill="#507ED3" stroke="black" stroke-width="0.5" stroke-miterlimit="10"/>
<path d="M173.892 165.268C143.096 179.918 137.387 152.782 137.387 152.782L150.477 147.266C150.82 147.39 151.312 147.567 151.912 147.807C155.95 149.439 164.916 153.837 167.005 161.455C167.005 161.455 170.743 161.987 173.764 165.135C173.807 165.179 173.849 165.223 173.892 165.268Z" fill="#507ED3" stroke="black" stroke-width="0.5" stroke-miterlimit="10"/>
<path d="M104.923 134.42L108.416 164.289" stroke="black" stroke-width="0.5" stroke-miterlimit="10"/>
<path d="M72.633 44.211C67.844 45.076 64.946 52.056 65.445 59.021L70.353 59.648L66.04 63.197C68.193 69.308 73.279 73.714 77.812 72.896C83.123 71.937 86.269 64.738 84.839 56.817C83.41 48.896 77.945 43.252 72.633 44.211Z" fill="black" stroke="black" stroke-width="0.5" stroke-miterlimit="10"/>
<path d="M62.267 44.85C62.785 45.5 63.591 46.362 64.756 47.138C65.677 47.752 66.549 48.131 67.235 48.369" stroke="black" stroke-width="0.5" stroke-miterlimit="10"/>
<path d="M67.2339 40.793C67.4769 41.451 67.8309 42.24 68.3499 43.079C68.9219 44.003 69.5319 44.725 70.0539 45.261" stroke="black" stroke-width="0.5" stroke-miterlimit="10"/>
<path d="M73.63 39.134C73.598 39.798 73.611 40.604 73.738 41.509C73.885 42.558 74.144 43.443 74.4 44.134" stroke="black" stroke-width="0.5" stroke-miterlimit="10"/>
<path d="M75.485 79.203C75.833 78.448 76.24 77.34 76.409 75.951C76.543 74.853 76.489 73.903 76.393 73.184" stroke="black" stroke-width="0.5" stroke-miterlimit="10"/>
<path d="M69.627 76.592C70.105 76.079 70.651 75.408 71.167 74.567C71.735 73.64 72.105 72.771 72.349 72.064" stroke="black" stroke-width="0.5" stroke-miterlimit="10"/>
<path d="M65.2679 71.626C65.8759 71.356 66.5899 70.982 67.3399 70.461C68.2099 69.858 68.8849 69.228 69.3869 68.689" stroke="black" stroke-width="0.5" stroke-miterlimit="10"/>
<path d="M109.102 38.816C113.955 38.466 118.494 44.509 119.739 51.38L115.14 53.205L120.198 55.573C119.628 62.027 115.794 67.557 111.2 67.889C105.817 68.277 100.983 62.084 100.404 54.056C99.824 46.027 103.719 39.204 109.102 38.816Z" fill="black" stroke="black" stroke-width="0.5" stroke-miterlimit="10"/>
<path d="M119.303 36.864C118.963 37.622 118.395 38.657 117.46 39.698C116.72 40.521 115.969 41.104 115.364 41.505" stroke="black" stroke-width="0.5" stroke-miterlimit="10"/>
<path d="M113.485 34.165C113.413 34.862 113.266 35.714 112.971 36.656C112.646 37.693 112.234 38.543 111.861 39.192" stroke="black" stroke-width="0.5" stroke-miterlimit="10"/>
<path d="M106.877 34.145C107.073 34.781 107.26 35.565 107.362 36.472C107.479 37.524 107.448 38.447 107.372 39.179" stroke="black" stroke-width="0.5" stroke-miterlimit="10"/>
<path d="M115.019 73.421C114.495 72.776 113.826 71.803 113.317 70.5C112.915 69.469 112.732 68.536 112.646 67.815" stroke="black" stroke-width="0.5" stroke-miterlimit="10"/>
<path d="M120.047 69.439C119.457 69.061 118.762 68.546 118.053 67.859C117.273 67.102 116.699 66.352 116.287 65.727" stroke="black" stroke-width="0.5" stroke-miterlimit="10"/>
<path d="M123.037 63.548C122.381 63.437 121.597 63.252 120.74 62.934C119.747 62.565 118.938 62.123 118.318 61.725" stroke="black" stroke-width="0.5" stroke-miterlimit="10"/>
<path d="M101.861 63.586C101.861 63.586 105.645 86.558 97.0729 87.292C87.3169 88.128 87.4209 64.822 87.4209 64.822C88.7309 65.339 91.4529 66.214 94.9409 65.885C98.2679 65.571 100.674 64.313 101.861 63.586Z" fill="white" stroke="black" stroke-width="0.5" stroke-miterlimit="10"/>
<path d="M97.5769 65.408L98.5559 75.78L99.5449 86.236V86.245" stroke="black" stroke-width="0.5" stroke-miterlimit="10"/>
<path d="M92.2329 65.923L93.2899 76.229L94.3759 86.835" stroke="black" stroke-width="0.5" stroke-miterlimit="10"/>
<path d="M102.678 75.424L98.5559 75.78L93.2899 76.229L88.6449 76.623" stroke="black" stroke-width="0.5" stroke-miterlimit="10"/>
<path d="M98.184 59.517C98.184 61.246 96.782 62.648 95.053 62.648C93.324 62.648 91.922 61.246 91.922 59.517C91.922 57.788 93.324 56.386 95.053 56.386C96.782 56.386 98.184 57.788 98.184 59.517Z" fill="#EF2E2E" stroke="black" stroke-width="0.5" stroke-miterlimit="10"/>
<path d="M44.894 131.189C33.589 133.972 9.60496 140.049 2.40196 126.901C-2.72204 117.541 5.98096 107.877 12.554 102.071C22.82 93.025 34.837 87.394 47.482 82.532C47.344 86.172 47.32 89.823 47.437 93.472C38.966 96.85 30.701 100.669 23.462 106.316C20.336 108.758 8.12696 117.436 11.67 122.423C14.192 125.966 24.568 124.336 27.932 123.951C33.017 123.364 38.046 122.376 43.006 121.151C49.416 119.574 51.24 129.632 44.894 131.189Z" fill="black" stroke="black" stroke-width="0.5" stroke-miterlimit="10"/>
<path d="M59.747 131.299C59.747 131.299 67.308 126.145 59.415 123.059C59.415 123.059 68.136 113.986 50.099 115.937C50.099 115.937 48.987 110.44 48.987 110.434C48.993 110.288 35.028 109.362 33.062 119.667C32.968 119.509 26.303 113.217 26.212 122.627C26.185 125.458 26.373 128.278 26.243 131.103C26.136 133.456 25.934 136.177 27.582 138.093C28.678 139.366 30.509 139.553 31.981 138.868C32.613 138.574 33.163 138.117 33.616 137.592C33.645 137.558 34.281 136.857 34.411 136.682C34.411 136.682 38.516 139.72 42.08 140.682C48.012 142.285 54.883 141.864 59.932 138.743C60.358 138.479 60.828 138.228 61.219 137.913C61.222 137.912 66.303 133.505 59.747 131.299Z" fill="white" stroke="black" stroke-width="0.5" stroke-miterlimit="10"/>
<path d="M48.514 124.318L59.4 123.131" stroke="black" stroke-width="0.5" stroke-miterlimit="10"/>
<path d="M48.91 133.008L60.115 131.283" stroke="black" stroke-width="0.5" stroke-miterlimit="10"/>
<path d="M47.235 116.461L50.071 115.926" stroke="black" stroke-width="0.5" stroke-miterlimit="10"/>
<path d="M33.033 119.634L33.09 123.065" stroke="black" stroke-width="0.5" stroke-miterlimit="10"/>
<path d="M34.222 133.387L34.43 136.767" stroke="black" stroke-width="0.5" stroke-miterlimit="10"/>
<path d="M106.241 16.332C97.4079 15.773 87.4239 16.805 80.7929 19.075C66.1669 24.087 57.8459 50.196 57.8459 50.196C57.1069 51.572 56.4189 53.016 55.7899 54.495C46.4949 46.538 26.8289 16.721 69.7939 4.569C109.069 -6.538 106.947 7.791 106.241 16.332Z" fill="#EC3F8C" stroke="black" stroke-width="0.5" stroke-miterlimit="10"/>
<path d="M125.233 25.85C124.697 30.837 120.6 35.85 116.38 39.773C109.106 33.767 101.081 30.02 93.0029 29.166C89.2679 28.763 85.5299 28.983 81.8389 29.884C71.5689 32.393 63.3369 39.793 57.8459 50.197L57.2009 51.054C57.2009 51.054 66.1669 24.087 80.7929 19.075C87.4239 16.805 97.4079 15.772 106.241 16.332C116.892 17.003 125.865 19.97 125.233 25.85Z" fill="#EC3F8C" stroke="black" stroke-width="0.5" stroke-miterlimit="10"/>
<path d="M28.616 203.395H46.889" stroke="black" stroke-width="0.5" stroke-miterlimit="10"/>
<path d="M24.714 206.062H39.332" stroke="black" stroke-width="0.5" stroke-miterlimit="10"/>
</svg>
