<svg width="1998" height="611" viewBox="0 0 1998 611" fill="none" xmlns="http://www.w3.org/2000/svg">
<mask id="mask0_2376_1044" style="mask-type:luminance" maskUnits="userSpaceOnUse" x="739" y="35" width="1259" height="541">
<path d="M739.905 35.328H1997.15V575.672H739.905V35.328Z" fill="white"/>
</mask>
<g mask="url(#mask0_2376_1044)">
<path d="M835.681 570.729H739.963V40.2653H901.76L946.224 363.855L990.687 40.2653H1153.72V570.729H1056.76V188.473L995.624 570.729H900.525L835.681 188.473V570.729ZM1323.54 575.672C1279.9 575.672 1247.46 563.323 1226.21 538.62C1205.05 513.916 1194.47 477.276 1194.47 428.697V40.2653H1297.6V424.375C1297.6 441.255 1299.25 454.427 1302.54 463.896C1305.84 473.364 1312.83 478.099 1323.54 478.099C1334.24 478.099 1341.24 473.448 1344.54 464.145C1347.83 454.921 1349.47 441.667 1349.47 424.375V40.2653H1452.6V428.697C1452.6 477.276 1441.98 513.916 1420.74 538.62C1399.58 563.323 1367.18 575.672 1323.54 575.672ZM1619.34 575.672C1571.17 575.672 1536.39 563.735 1514.97 539.855C1493.57 515.979 1482.86 477.484 1482.86 424.375V372.5H1587.23V438.579C1587.23 464.927 1595.67 478.099 1612.55 478.099C1622.01 478.099 1628.6 475.301 1632.31 469.703C1636.01 464.188 1637.86 454.839 1637.86 441.667C1637.86 424.375 1635.81 410.047 1631.69 398.688C1627.57 387.407 1622.3 377.937 1615.88 370.281C1609.54 362.703 1598.13 350.891 1581.67 334.833L1535.97 289.135C1500.57 254.552 1482.86 216.265 1482.86 174.271C1482.86 128.984 1493.24 94.484 1513.99 70.7707C1534.82 47.14 1565.2 35.328 1605.13 35.328C1652.89 35.328 1687.27 47.964 1708.27 73.2453C1729.26 98.604 1739.76 138.249 1739.76 192.183H1631.69L1631.07 155.744C1631.07 148.744 1629.1 143.188 1625.15 139.073C1621.28 134.953 1615.84 132.896 1608.84 132.896C1600.61 132.896 1594.43 135.161 1590.32 139.688C1586.2 144.219 1584.14 150.396 1584.14 158.213C1584.14 175.505 1594.02 193.416 1613.78 211.943L1675.54 271.224C1689.95 285.224 1701.89 298.479 1711.35 310.995C1720.82 323.593 1728.44 338.411 1734.2 355.459C1739.96 372.583 1742.85 392.88 1742.85 416.349C1742.85 468.631 1733.25 508.235 1714.07 535.161C1694.97 562.167 1663.39 575.672 1619.34 575.672ZM1997.15 570.729H1777.92V40.2653H1990.36V142.776H1885.99V245.907H1986.04V345.948H1885.99V467.604H1997.15V570.729Z" fill="white"/>
</g>
<mask id="mask1_2376_1044" style="mask-type:luminance" maskUnits="userSpaceOnUse" x="0" y="0" width="613" height="611">
<path d="M0 0H612.344V611H0V0Z" fill="white"/>
</mask>
<g mask="url(#mask1_2376_1044)">
<path d="M0 67.3693C37.572 67.3853 68.0253 97.8387 68.0413 135.411V441.583C68.0413 535.525 144.187 611.672 238.129 611.672C332.072 611.672 408.229 535.525 408.229 441.583V203.443C408.219 194.416 411.801 185.76 418.181 179.38C424.563 173 433.219 169.416 442.244 169.427C451.271 169.416 459.927 172.995 466.312 179.375C472.692 185.76 476.276 194.416 476.271 203.443V373.531C476.271 448.615 537.197 509.615 612.339 509.615V441.583C574.765 441.563 544.312 411.104 544.301 373.531V203.443C544.301 147.068 498.588 101.385 442.244 101.385C385.896 101.385 340.187 147.068 340.187 203.443V441.583C340.187 497.948 294.473 543.64 238.129 543.64C181.781 543.64 136.072 497.948 136.072 441.583V135.411C136.072 60.2867 75.1453 -0.671997 0 -0.671997V67.3693Z" fill="#99A28E"/>
</g>
</svg>
