<svg width="212" height="301" viewBox="0 0 212 301" fill="none" xmlns="http://www.w3.org/2000/svg">
<path d="M25.5188 154.683L190.892 157.071V176.176L173.28 179.161C173.28 179.161 164.325 291.101 163.131 291.997C161.937 292.892 66.1158 293.788 66.1158 293.788L47.9069 291.997L40.1457 270.504L32.7181 176.176H18.9517L20.7427 154.683L25.5188 154.683Z" fill="#FCF0D2"/>
<path d="M92.9661 157.488C92.9661 157.488 78.6377 170.622 82.8168 173.906C86.9959 177.189 43.4138 177.488 43.4138 177.488L56.5481 295.995H158.936L172.071 177.488L187.294 173.906V153.728L92.9661 157.488Z" fill="#F8BF2F"/>
<path d="M28.5002 182.765C28.5002 182.765 23.3968 182.958 20.1585 181.728C16.9202 180.497 15.8575 179.914 15.3394 176.806C14.8213 173.697 15.3394 153.489 15.3394 153.489C15.3394 153.489 17.412 148.826 22.3342 149.344C27.2565 149.863 191.764 149.344 191.764 149.344C191.764 149.344 195.909 152.194 196.168 154.526C196.427 156.857 196.168 180.432 196.168 180.432C196.168 180.432 194.096 182.246 191.764 181.728C189.433 181.21 184.986 181.728 184.986 181.728L177.293 280.256C177.293 280.256 175.633 297.891 160.073 299.551C145.599 301.095 93.6103 300.218 60.8819 299.675C56.0177 299.594 51.2777 298.125 47.2196 295.442C43.3711 292.898 39.5727 290.139 37.666 285.235C34.7614 277.767 28.5002 182.765 28.5002 182.765ZM26.9123 171.102H184.726V160.66H26.9123V171.102ZM38.7555 181.848C37.8599 181.848 44.7256 271.698 45.9196 279.758C47.1137 287.818 58.1584 290.206 58.1584 290.206H153.681L164.129 181.848C164.129 181.848 39.651 181.848 38.7555 181.848Z" fill="#010000"/>
<path d="M18.1186 159.619L11.3641 156.675C11.3641 156.675 3.5568 154.516 0.400655 165.147C-2.7555 175.778 13.6335 213.652 18.1186 220.463C22.6036 227.273 49.4593 267.224 99.0718 272.844C148.684 278.464 181.475 237.435 189.278 226.757C197.081 216.08 212.071 182.601 211.249 165.147C209.546 155.25 197.801 155.773 196.038 158.292C194.275 160.811 195.887 164.14 202.058 165.147C208.229 166.155 206.466 166.44 206.466 166.44C206.466 166.44 193.621 260.13 105.621 262.33C18.6211 259.93 5.35871 166.44 5.35871 166.44C5.35871 166.44 6.69544 164.832 9.39483 164.586C12.0942 164.341 14.3028 163.973 15.7752 163.727C17.2476 163.482 18.1186 159.619 18.1186 159.619Z" fill="#010000"/>
<path d="M106.102 202.439L119.12 227.209L110.71 241.84L93.7745 238.845L92.1616 225.365L106.102 202.439Z" fill="#3D58D8"/>
<path d="M99.8261 213.88C99.8261 213.88 99.0197 224.594 99.8261 228.627C100.633 232.659 103.715 239.687 103.715 239.687C103.715 239.687 99.0197 238.765 96.4851 236.23C93.9505 233.696 93.9217 231.564 94.181 227.129C94.901 222.233 99.8261 213.88 99.8261 213.88Z" fill="#FDECD8"/>
<path d="M104.997 205.335C104.997 205.335 114.914 221.607 115.354 228.351C115.795 235.094 110.126 239.492 106.601 239.639C103.077 239.785 94.707 239.052 94.1197 229.23C93.5323 219.408 104.997 205.335 104.997 205.335ZM87.302 230.798C88.297 245.205 102.476 246.28 108.446 246.065C114.416 245.85 124.019 239.399 123.273 229.508C122.622 220.87 114.593 208.856 108.452 199.774C107.802 198.814 106.743 198.21 105.585 198.141C104.428 198.071 103.304 198.545 102.544 199.421C95.0047 208.12 86.4255 218.106 87.302 230.798Z" fill="#010001"/>
<path d="M98.8951 4.60815L130.552 15.1495L140.808 24.5512L157.617 27.97L170.438 43.6395L174.426 56.1751L192.09 64.7221L196.784 81.2463L183.543 98.3404H34.5402L14.6091 84.95V64.7221L27.7026 50.762L42.2325 49.0526L51.6342 52.4653L53.0587 35.6623C53.0587 35.6623 71.2923 15.1495 72.4319 15.1495C73.5715 15.1495 98.8951 4.60815 98.8951 4.60815Z" fill="#F9F8FB"/>
<path d="M44.7125 98.6581C44.7125 98.6581 25.6649 89.9866 25.5206 76.4224C25.3763 62.8582 34.1786 59.2506 36.9203 57.9519C39.662 56.6532 46.5884 55.6431 53.0819 59.5392C57.0448 61.917 59.7422 63.4578 59.7422 63.4578C59.7422 63.4578 58.421 29.9577 88.0025 18.2694C117.584 6.5811 138.075 26.9274 138.075 26.9274L121.094 43.5685L120.614 56.2203C120.614 56.2203 125.521 35.7297 146.733 34.431C167.945 33.1323 169.532 56.2203 169.532 56.2203L183.096 59.5392L192.332 68.1973L193.919 86.0905L176.314 101.242L72.5624 100.232L44.7125 98.6581Z" fill="#3D58D8"/>
<path d="M34.447 104.638C17.106 99.1997 8.6825 90.5537 8.40081 72.5255C8.11912 54.4974 28.6825 37.596 46.429 45.2016C47.1232 34.7887 54.7893 19.9688 67.9139 10.3381C76.0922 4.33689 87.3576 0.888169 97.4149 0.131169C123.612 -1.84066 143.534 19.0325 142.485 21.5396C143.628 21.2579 154.288 18.4753 160.795 23.7931C174.035 31.9621 177.978 45.2016 176.57 51.9621C178.542 50.8354 203.33 55.3424 200.795 79.2861C198.26 103.23 176.57 104.638 176.57 104.638C176.57 104.638 40.0351 105.296 34.447 104.638ZM37.1007 94.6125C51.7474 97.8993 178.734 94.6125 178.734 94.6125C178.734 94.6125 199.053 88.8356 188.694 67.72C180.726 54.971 166.583 64.732 166.583 64.732C166.583 64.732 173.953 38.4372 153.037 31.6643C132.121 24.8914 121.364 46.0069 120.965 48.1981C119.571 40.8276 126.344 28.2778 134.113 24.4929C129.133 19.9113 109.81 4.57263 88.8935 11.1463C67.9772 17.72 53.6843 43.7659 54.6305 50.1902C60.1584 57.2121 60.009 64.732 60.009 64.732C60.009 64.732 44.0728 47.0029 30.527 54.7718C16.9812 62.5407 18.3542 76.0866 18.9518 80.6682C19.5494 85.2499 26.6371 94.1145 37.1007 94.6125Z" fill="black"/>
<path d="M170.469 115.008C171.585 115.008 172.659 115.432 173.474 116.194C174.682 117.323 175.866 118.281 175.043 120.954C174.054 124.168 166.46 133.532 161.741 139.35C160.904 140.382 159.624 140.951 158.297 140.882C156.385 140.782 153.5 140.516 152.746 139.197C151.418 136.872 155.015 133.047 158.279 128.477C160.833 124.901 163.357 120.309 166.315 116.623C167.134 115.602 168.373 115.008 169.682 115.008L170.469 115.008ZM141.82 115.008C142.936 115.008 144.01 115.432 144.825 116.194C146.033 117.323 147.217 118.281 146.395 120.954C145.406 124.168 137.812 133.532 133.092 139.35C132.255 140.382 130.975 140.951 129.648 140.882C127.736 140.782 124.851 140.516 124.097 139.197C122.769 136.872 126.366 133.047 129.63 128.477C132.184 124.901 134.708 120.309 137.666 116.623C138.485 115.602 139.724 115.008 141.034 115.008L141.82 115.008ZM113.442 115.008C114.558 115.008 115.632 115.432 116.447 116.194C117.655 117.323 118.839 118.281 118.016 120.954C117.027 124.168 109.433 133.532 104.714 139.35C103.877 140.382 102.597 140.951 101.27 140.882C99.358 140.782 96.4728 140.516 95.719 139.197C94.3907 136.872 97.9879 133.047 101.252 128.477C103.806 124.901 106.33 120.309 109.288 116.623C110.107 115.602 111.346 115.008 112.655 115.008L113.442 115.008ZM85.1986 115.008C86.3145 115.008 87.3886 115.432 88.2036 116.194C89.4115 117.323 90.5954 118.281 89.7731 120.954C88.784 124.168 81.1902 133.532 76.4705 139.35C75.6334 140.382 74.3533 140.951 73.0264 140.882C71.1147 140.782 68.2295 140.516 67.4758 139.197C66.1475 136.872 69.7446 133.047 73.0084 128.477C75.5624 124.901 78.0868 120.309 81.0444 116.623C81.8638 115.602 83.1025 115.008 84.4119 115.008L85.1986 115.008ZM57.0905 115.008C58.2064 115.008 59.2805 115.432 60.0955 116.194C61.3034 117.323 62.4873 118.281 61.665 120.954C60.6759 124.168 53.0821 133.532 48.3624 139.35C47.5253 140.382 46.2452 140.951 44.9183 140.882C43.0066 140.782 40.1214 140.516 39.3677 139.197C38.0394 136.872 41.6365 133.047 44.9004 128.477C47.4543 124.901 49.9787 120.309 52.9363 116.623C53.7557 115.602 54.9944 115.008 56.3038 115.008L57.0905 115.008Z" fill="#010000"/>
</svg>
