<svg width="45" height="56" viewBox="0 0 45 56" fill="none" xmlns="http://www.w3.org/2000/svg">
<path d="M43.3477 10.7167L33.5156 1.54189C32.4609 0.557704 31.0313 0 29.543 0H5.625C2.51953 0.0109354 0 2.36204 0 5.25991V50.751C0 53.6489 2.51953 56 5.625 56H39.375C42.4805 56 45 53.6489 45 50.751V14.4347C45 13.0459 44.4023 11.7008 43.3477 10.7167ZM38.918 14.0082H30V5.68639L38.918 14.0082ZM5.625 50.751V5.25991H24.375V16.6327C24.375 18.0871 25.6289 19.2572 27.1875 19.2572H39.375V50.751H5.625Z" fill="black"/>
</svg>
